# https://github.com/mikedh/trimesh
mtllib material.mtl
usemtl material_0
v 0.05900000 0.05900000 0.04000000
v 0.10900000 0.05900000 0.08000001
v 0.10900000 0.05900000 0.04000000
v 0.05900000 0.05900000 0.08000001
v 0.05900000 0.05900000 0.08000001
v 0.05900000 0.05900000 0.04000000
v 0.10900000 0.05900000 0.08000001
v 0.10900000 0.05900000 0.04000000
v 0.05900000 0.05900000 0.00000000
v 0.10900000 0.05900000 0.04000000
v 0.10900000 0.05900000 0.00000000
v 0.05900000 0.05900000 0.04000000
v 0.05900000 0.05900000 0.04000000
v 0.05900000 0.05900000 0.00000000
v 0.10900000 0.05900000 0.04000000
v 0.10900000 0.05900000 0.00000000
v 0.05900000 0.10900000 0.04000000
v 0.05900000 0.05900000 0.08000001
v 0.05900000 0.05900000 0.04000000
v 0.05900000 0.10900000 0.08000001
v 0.05900000 0.10900000 0.08000001
v 0.05900000 0.10900000 0.04000000
v 0.05900000 0.05900000 0.08000001
v 0.05900000 0.05900000 0.04000000
v 0.05900000 0.10900000 0.00000000
v 0.05900000 0.05900000 0.04000000
v 0.05900000 0.05900000 0.00000000
v 0.05900000 0.10900000 0.04000000
v 0.05900000 0.10900000 0.04000000
v 0.05900000 0.10900000 0.00000000
v 0.05900000 0.05900000 0.04000000
v 0.05900000 0.05900000 0.00000000
v 0.00000000 0.00000000 0.00000000
v 0.10900000 0.00000000 0.08000001
v 0.10900000 0.00000000 0.00000000
v 0.00000000 0.00000000 0.08000001
v 0.00000000 0.00000000 0.08000001
v 0.00000000 0.00000000 0.00000000
v 0.10900000 0.00000000 0.08000001
v 0.10900000 0.00000000 0.00000000
v 0.05900000 0.10900000 0.08000001
v 0.00000000 0.00000000 0.08000001
v 0.00000000 0.10900000 0.08000001
v 0.05900000 0.05900000 0.08000001
v 0.10900000 0.00000000 0.08000001
v 0.10900000 0.05900000 0.08000001
v 0.10900000 0.05900000 0.08000001
v 0.05900000 0.05900000 0.08000001
v 0.10900000 0.00000000 0.08000001
v 0.00000000 0.00000000 0.08000001
v 0.05900000 0.10900000 0.08000001
v 0.00000000 0.10900000 0.08000001
v 0.10900000 0.00000000 0.00000000
v 0.05900000 0.05900000 0.00000000
v 0.00000000 0.00000000 0.00000000
v 0.10900000 0.05900000 0.00000000
v 0.05900000 0.10900000 0.00000000
v 0.00000000 0.10900000 0.00000000
v 0.05900000 0.05900000 0.00000000
v 0.00000000 0.00000000 0.00000000
v 0.05900000 0.10900000 0.00000000
v 0.00000000 0.10900000 0.00000000
v 0.10900000 0.05900000 0.00000000
v 0.10900000 0.00000000 0.00000000
v 0.00000000 0.10900000 0.00000000
v 0.00000000 0.00000000 0.08000001
v 0.00000000 0.00000000 0.00000000
v 0.00000000 0.10900000 0.08000001
v 0.00000000 0.10900000 0.08000001
v 0.00000000 0.10900000 0.00000000
v 0.00000000 0.00000000 0.08000001
v 0.00000000 0.00000000 0.00000000
v 0.10900000 0.10900000 0.04000000
v 0.07900000 0.07900000 0.04000000
v 0.07900000 0.10900000 0.04000000
v 0.10900000 0.07900000 0.04000000
v 0.10900000 0.07900000 0.04000000
v 0.10900000 0.10900000 0.04000000
v 0.07900000 0.07900000 0.04000000
v 0.07900000 0.10900000 0.04000000
v 0.07900000 0.10900000 0.04000000
v 0.05900000 0.05900000 0.04000000
v 0.05900000 0.10900000 0.04000000
v 0.07900000 0.07900000 0.04000000
v 0.10900000 0.05900000 0.04000000
v 0.10900000 0.07900000 0.04000000
v 0.10900000 0.07900000 0.04000000
v 0.07900000 0.07900000 0.04000000
v 0.10900000 0.05900000 0.04000000
v 0.05900000 0.05900000 0.04000000
v 0.07900000 0.10900000 0.04000000
v 0.05900000 0.10900000 0.04000000
v 0.10900000 0.10900000 0.08000001
v 0.10900000 0.00000000 0.00000000
v 0.10900000 0.00000000 0.08000001
v 0.10900000 0.10900000 0.00000000
v 0.10900000 0.10900000 0.00000000
v 0.10900000 0.10900000 0.08000001
v 0.10900000 0.00000000 0.00000000
v 0.10900000 0.00000000 0.08000001
v 0.05000000 0.05900000 0.08000001
v 0.00000000 0.00000000 0.08000001
v 0.00000000 0.05900000 0.08000001
v 0.10900000 0.00000000 0.08000001
v 0.05000000 0.10900000 0.08000001
v 0.10900000 0.10900000 0.08000001
v 0.10900000 0.10900000 0.08000001
v 0.05000000 0.10900000 0.08000001
v 0.10900000 0.00000000 0.08000001
v 0.05000000 0.05900000 0.08000001
v 0.00000000 0.00000000 0.08000001
v 0.00000000 0.05900000 0.08000001
v 0.10900000 0.00000000 0.00000000
v 0.00000000 0.05900000 0.00000000
v 0.00000000 0.00000000 0.00000000
v 0.05000000 0.05900000 0.00000000
v 0.05000000 0.10900000 0.00000000
v 0.10900000 0.10900000 0.00000000
v 0.10900000 0.10900000 0.00000000
v 0.10900000 0.00000000 0.00000000
v 0.05000000 0.10900000 0.00000000
v 0.05000000 0.05900000 0.00000000
v 0.00000000 0.05900000 0.00000000
v 0.00000000 0.00000000 0.00000000
v 0.00000000 0.00000000 0.00000000
v 0.10900000 0.00000000 0.08000001
v 0.10900000 0.00000000 0.00000000
v 0.00000000 0.00000000 0.08000001
v 0.00000000 0.00000000 0.08000001
v 0.00000000 0.00000000 0.00000000
v 0.10900000 0.00000000 0.08000001
v 0.10900000 0.00000000 0.00000000
v 0.00000000 0.05900000 0.00000000
v 0.05000000 0.05900000 0.04000000
v 0.05000000 0.05900000 0.00000000
v 0.00000000 0.05900000 0.04000000
v 0.00000000 0.05900000 0.04000000
v 0.00000000 0.05900000 0.00000000
v 0.05000000 0.05900000 0.04000000
v 0.05000000 0.05900000 0.00000000
v 0.00000000 0.05900000 0.04000000
v 0.05000000 0.05900000 0.08000001
v 0.05000000 0.05900000 0.04000000
v 0.00000000 0.05900000 0.08000001
v 0.00000000 0.05900000 0.08000001
v 0.00000000 0.05900000 0.04000000
v 0.05000000 0.05900000 0.08000001
v 0.05000000 0.05900000 0.04000000
v 0.05000000 0.10900000 0.04000000
v 0.05000000 0.05900000 0.00000000
v 0.05000000 0.05900000 0.04000000
v 0.05000000 0.10900000 0.00000000
v 0.05000000 0.10900000 0.00000000
v 0.05000000 0.10900000 0.04000000
v 0.05000000 0.05900000 0.00000000
v 0.05000000 0.05900000 0.04000000
v 0.05000000 0.10900000 0.08000001
v 0.05000000 0.05900000 0.04000000
v 0.05000000 0.05900000 0.08000001
v 0.05000000 0.10900000 0.04000000
v 0.05000000 0.10900000 0.04000000
v 0.05000000 0.10900000 0.08000001
v 0.05000000 0.05900000 0.04000000
v 0.05000000 0.05900000 0.08000001
v 0.03000000 0.10900000 0.04000000
v 0.00000000 0.07900000 0.04000000
v 0.00000000 0.10900000 0.04000000
v 0.03000000 0.07900000 0.04000000
v 0.03000000 0.07900000 0.04000000
v 0.03000000 0.10900000 0.04000000
v 0.00000000 0.07900000 0.04000000
v 0.00000000 0.10900000 0.04000000
v 0.05000000 0.10900000 0.04000000
v 0.03000000 0.07900000 0.04000000
v 0.03000000 0.10900000 0.04000000
v 0.00000000 0.05900000 0.04000000
v 0.00000000 0.07900000 0.04000000
v 0.05000000 0.05900000 0.04000000
v 0.05000000 0.10900000 0.04000000
v 0.03000000 0.07900000 0.04000000
v 0.05000000 0.05900000 0.04000000
v 0.00000000 0.05900000 0.04000000
v 0.00000000 0.07900000 0.04000000
v 0.03000000 0.10900000 0.04000000
v 0.10900000 0.03000000 0.04000000
v 0.07900000 0.00000000 0.04000000
v 0.07900000 0.03000000 0.04000000
v 0.10900000 0.00000000 0.04000000
v 0.10900000 0.00000000 0.04000000
v 0.10900000 0.03000000 0.04000000
v 0.07900000 0.00000000 0.04000000
v 0.07900000 0.03000000 0.04000000
v 0.07900000 0.00000000 0.04000000
v 0.05900000 0.00000000 0.04000000
v 0.07900000 0.03000000 0.04000000
v 0.05900000 0.05000000 0.04000000
v 0.10900000 0.05000000 0.04000000
v 0.10900000 0.03000000 0.04000000
v 0.10900000 0.03000000 0.04000000
v 0.10900000 0.05000000 0.04000000
v 0.07900000 0.03000000 0.04000000
v 0.05900000 0.05000000 0.04000000
v 0.05900000 0.00000000 0.04000000
v 0.07900000 0.00000000 0.04000000
v 0.10900000 0.05000000 0.08000001
v 0.05900000 0.05000000 0.04000000
v 0.10900000 0.05000000 0.04000000
v 0.05900000 0.05000000 0.08000001
v 0.05900000 0.05000000 0.08000001
v 0.10900000 0.05000000 0.08000001
v 0.05900000 0.05000000 0.04000000
v 0.10900000 0.05000000 0.04000000
v 0.05900000 0.05000000 0.00000000
v 0.10900000 0.05000000 0.00000000
v 0.05900000 0.05000000 0.00000000
v 0.10900000 0.05000000 0.00000000
v 0.05900000 0.05000000 0.04000000
v 0.05900000 0.00000000 0.08000001
v 0.05900000 0.00000000 0.04000000
v 0.05900000 0.05000000 0.08000001
v 0.05900000 0.05000000 0.08000001
v 0.05900000 0.05000000 0.04000000
v 0.05900000 0.00000000 0.08000001
v 0.05900000 0.00000000 0.04000000
v 0.05900000 0.05000000 0.00000000
v 0.05900000 0.00000000 0.04000000
v 0.05900000 0.00000000 0.00000000
v 0.05900000 0.05000000 0.04000000
v 0.05900000 0.05000000 0.04000000
v 0.05900000 0.05000000 0.00000000
v 0.05900000 0.00000000 0.04000000
v 0.05900000 0.00000000 0.00000000
v 0.00000000 0.00000000 0.00000000
v 0.10900000 0.10900000 0.00000000
v 0.00000000 0.10900000 0.00000000
v 0.05900000 0.05000000 0.00000000
v 0.05900000 0.00000000 0.00000000
v 0.10900000 0.05000000 0.00000000
v 0.10900000 0.05000000 0.00000000
v 0.05900000 0.05000000 0.00000000
v 0.10900000 0.10900000 0.00000000
v 0.05900000 0.00000000 0.00000000
v 0.00000000 0.00000000 0.00000000
v 0.00000000 0.10900000 0.00000000
v 0.00000000 0.10900000 0.00000000
v 0.00000000 0.00000000 0.08000001
v 0.00000000 0.00000000 0.00000000
v 0.00000000 0.10900000 0.08000001
v 0.00000000 0.10900000 0.08000001
v 0.00000000 0.10900000 0.00000000
v 0.00000000 0.00000000 0.08000001
v 0.00000000 0.00000000 0.00000000
v 0.10900000 0.10900000 0.08000001
v 0.00000000 0.10900000 0.00000000
v 0.10900000 0.10900000 0.00000000
v 0.00000000 0.10900000 0.08000001
v 0.00000000 0.10900000 0.08000001
v 0.10900000 0.10900000 0.08000001
v 0.00000000 0.10900000 0.00000000
v 0.10900000 0.10900000 0.00000000
v 0.05900000 0.00000000 0.08000001
v 0.00000000 0.00000000 0.08000001
v 0.05900000 0.05000000 0.08000001
v 0.10900000 0.10900000 0.08000001
v 0.00000000 0.10900000 0.08000001
v 0.10900000 0.05000000 0.08000001
v 0.10900000 0.05000000 0.08000001
v 0.10900000 0.10900000 0.08000001
v 0.05900000 0.05000000 0.08000001
v 0.00000000 0.00000000 0.08000001
v 0.00000000 0.10900000 0.08000001
v 0.05900000 0.00000000 0.08000001
v 0.10900000 0.10900000 0.08000001
v 0.10900000 0.00000000 0.00000000
v 0.10900000 0.00000000 0.08000001
v 0.10900000 0.10900000 0.00000000
v 0.10900000 0.10900000 0.00000000
v 0.10900000 0.10900000 0.08000001
v 0.10900000 0.00000000 0.00000000
v 0.10900000 0.00000000 0.08000001
v 0.10900000 0.00000000 0.00000000
v 0.05000000 0.05000000 0.00000000
v 0.05000000 0.00000000 0.00000000
v 0.10900000 0.10900000 0.00000000
v 0.00000000 0.10900000 0.00000000
v 0.00000000 0.05000000 0.00000000
v 0.10900000 0.10900000 0.00000000
v 0.05000000 0.05000000 0.00000000
v 0.00000000 0.10900000 0.00000000
v 0.00000000 0.05000000 0.00000000
v 0.10900000 0.00000000 0.00000000
v 0.05000000 0.00000000 0.00000000
v 0.10900000 0.10900000 0.08000001
v 0.00000000 0.05000000 0.08000001
v 0.00000000 0.10900000 0.08000001
v 0.05000000 0.05000000 0.08000001
v 0.10900000 0.00000000 0.08000001
v 0.05000000 0.00000000 0.08000001
v 0.10900000 0.10900000 0.08000001
v 0.05000000 0.05000000 0.08000001
v 0.10900000 0.00000000 0.08000001
v 0.05000000 0.00000000 0.08000001
v 0.00000000 0.05000000 0.08000001
v 0.00000000 0.10900000 0.08000001
v 0.10900000 0.10900000 0.08000001
v 0.00000000 0.10900000 0.00000000
v 0.10900000 0.10900000 0.00000000
v 0.00000000 0.10900000 0.08000001
v 0.00000000 0.10900000 0.08000001
v 0.10900000 0.10900000 0.08000001
v 0.00000000 0.10900000 0.00000000
v 0.10900000 0.10900000 0.00000000
v 0.05000000 0.05000000 0.08000001
v 0.05000000 0.00000000 0.04000000
v 0.05000000 0.00000000 0.08000001
v 0.05000000 0.05000000 0.04000000
v 0.05000000 0.05000000 0.04000000
v 0.05000000 0.05000000 0.08000001
v 0.05000000 0.00000000 0.04000000
v 0.05000000 0.00000000 0.08000001
v 0.05000000 0.05000000 0.04000000
v 0.05000000 0.00000000 0.00000000
v 0.05000000 0.00000000 0.04000000
v 0.05000000 0.05000000 0.00000000
v 0.05000000 0.05000000 0.00000000
v 0.05000000 0.05000000 0.04000000
v 0.05000000 0.00000000 0.00000000
v 0.05000000 0.00000000 0.04000000
v 0.05000000 0.05000000 0.08000001
v 0.00000000 0.05000000 0.04000000
v 0.05000000 0.05000000 0.04000000
v 0.00000000 0.05000000 0.08000001
v 0.00000000 0.05000000 0.08000001
v 0.05000000 0.05000000 0.08000001
v 0.00000000 0.05000000 0.04000000
v 0.05000000 0.05000000 0.04000000
v 0.00000000 0.05000000 0.00000000
v 0.05000000 0.05000000 0.00000000
v 0.00000000 0.05000000 0.00000000
v 0.05000000 0.05000000 0.00000000
v 0.03000000 0.03000000 0.04000000
v 0.00000000 0.00000000 0.04000000
v 0.00000000 0.03000000 0.04000000
v 0.03000000 0.00000000 0.04000000
v 0.03000000 0.00000000 0.04000000
v 0.03000000 0.03000000 0.04000000
v 0.00000000 0.00000000 0.04000000
v 0.00000000 0.03000000 0.04000000
v 0.05000000 0.05000000 0.04000000
v 0.00000000 0.03000000 0.04000000
v 0.00000000 0.05000000 0.04000000
v 0.03000000 0.03000000 0.04000000
v 0.03000000 0.00000000 0.04000000
v 0.05000000 0.00000000 0.04000000
v 0.05000000 0.00000000 0.04000000
v 0.05000000 0.05000000 0.04000000
v 0.03000000 0.00000000 0.04000000
v 0.03000000 0.03000000 0.04000000
v 0.00000000 0.03000000 0.04000000
v 0.00000000 0.05000000 0.04000000
v 0.48199999 0.05900000 0.08000001
v 0.48199999 0.00000000 0.00000000
v 0.48199999 0.00000000 0.08000001
v 0.48199999 0.05900000 0.00000000
v 0.48199999 0.05900000 0.04000000
v 0.48199999 0.07900000 0.04000000
v 0.00000000 0.05900000 0.04000000
v 0.00000000 0.07900000 0.04000000
v 0.48199999 0.05900000 0.04000000
v 0.48199999 0.05900000 0.04000000
v 0.48199999 0.07900000 0.04000000
v 0.00000000 0.05900000 0.04000000
v 0.00000000 0.07900000 0.04000000
v 0.00000000 0.05900000 0.04000000
v 0.48199999 0.05900000 0.08000001
v 0.48199999 0.05900000 0.04000000
v 0.00000000 0.05900000 0.08000001
v 0.00000000 0.05900000 0.08000001
v 0.00000000 0.05900000 0.04000000
v 0.48199999 0.05900000 0.08000001
v 0.48199999 0.05900000 0.04000000
v 0.00000000 0.05900000 0.00000000
v 0.48199999 0.05900000 0.04000000
v 0.48199999 0.05900000 0.00000000
v 0.00000000 0.05900000 0.04000000
v 0.00000000 0.05900000 0.04000000
v 0.00000000 0.05900000 0.00000000
v 0.48199999 0.05900000 0.04000000
v 0.48199999 0.05900000 0.00000000
v 0.48199999 0.00000000 0.00000000
v 0.00000000 0.05900000 0.00000000
v 0.00000000 0.00000000 0.00000000
v 0.48199999 0.05900000 0.00000000
v 0.48199999 0.05900000 0.00000000
v 0.48199999 0.00000000 0.00000000
v 0.00000000 0.05900000 0.00000000
v 0.00000000 0.00000000 0.00000000
v 0.00000000 0.00000000 0.00000000
v 0.48199999 0.00000000 0.08000001
v 0.48199999 0.00000000 0.00000000
v 0.00000000 0.00000000 0.08000001
v 0.00000000 0.00000000 0.08000001
v 0.00000000 0.00000000 0.00000000
v 0.48199999 0.00000000 0.08000001
v 0.48199999 0.00000000 0.00000000
v 0.48199999 0.05900000 0.08000001
v 0.00000000 0.00000000 0.08000001
v 0.00000000 0.05900000 0.08000001
v 0.48199999 0.00000000 0.08000001
v 0.48199999 0.00000000 0.08000001
v 0.48199999 0.05900000 0.08000001
v 0.00000000 0.00000000 0.08000001
v 0.00000000 0.05900000 0.08000001
v 0.48199999 0.10900000 0.04000000
v 0.00000000 0.07900000 0.04000000
v 0.00000000 0.10900000 0.04000000
v 0.48199999 0.07900000 0.04000000
v 0.48199999 0.07900000 0.04000000
v 0.48199999 0.10900000 0.04000000
v 0.00000000 0.07900000 0.04000000
v 0.00000000 0.10900000 0.04000000
v 0.00000000 0.05900000 0.08000001
v 0.00000000 0.00000000 0.00000000
v 0.00000000 0.00000000 0.08000001
v 0.00000000 0.05900000 0.04000000
v 0.00000000 0.05900000 0.00000000
v 0.48199999 0.10900000 0.08000001
v 0.00000000 0.05000000 0.08000001
v 0.00000000 0.10900000 0.08000001
v 0.48199999 0.05000000 0.08000001
v 0.48199999 0.05000000 0.08000001
v 0.48199999 0.10900000 0.08000001
v 0.00000000 0.05000000 0.08000001
v 0.00000000 0.10900000 0.08000001
v 0.48199999 0.10900000 0.08000001
v 0.00000000 0.10900000 0.00000000
v 0.48199999 0.10900000 0.00000000
v 0.00000000 0.10900000 0.08000001
v 0.00000000 0.10900000 0.08000001
v 0.48199999 0.10900000 0.08000001
v 0.00000000 0.10900000 0.00000000
v 0.48199999 0.10900000 0.00000000
v 0.48199999 0.05000000 0.00000000
v 0.00000000 0.10900000 0.00000000
v 0.00000000 0.05000000 0.00000000
v 0.48199999 0.10900000 0.00000000
v 0.48199999 0.10900000 0.00000000
v 0.48199999 0.05000000 0.00000000
v 0.00000000 0.10900000 0.00000000
v 0.00000000 0.05000000 0.00000000
v 0.48199999 0.10900000 0.08000001
v 0.48199999 0.05000000 0.04000000
v 0.48199999 0.05000000 0.08000001
v 0.48199999 0.05000000 0.00000000
v 0.48199999 0.10900000 0.00000000
v 0.48199999 0.03000000 0.04000000
v 0.00000000 0.00000000 0.04000000
v 0.00000000 0.03000000 0.04000000
v 0.48199999 0.00000000 0.04000000
v 0.48199999 0.00000000 0.04000000
v 0.48199999 0.03000000 0.04000000
v 0.00000000 0.00000000 0.04000000
v 0.00000000 0.03000000 0.04000000
v 0.48199999 0.05000000 0.04000000
v 0.00000000 0.05000000 0.00000000
v 0.48199999 0.05000000 0.00000000
v 0.00000000 0.05000000 0.04000000
v 0.00000000 0.05000000 0.04000000
v 0.48199999 0.05000000 0.04000000
v 0.00000000 0.05000000 0.00000000
v 0.48199999 0.05000000 0.00000000
v 0.48199999 0.05000000 0.08000001
v 0.00000000 0.05000000 0.08000001
v 0.00000000 0.05000000 0.08000001
v 0.48199999 0.05000000 0.08000001
v 0.48199999 0.05000000 0.04000000
v 0.00000000 0.03000000 0.04000000
v 0.00000000 0.05000000 0.04000000
v 0.48199999 0.03000000 0.04000000
v 0.48199999 0.03000000 0.04000000
v 0.48199999 0.05000000 0.04000000
v 0.00000000 0.03000000 0.04000000
v 0.00000000 0.05000000 0.04000000
v 0.00000000 0.10900000 0.08000001
v 0.00000000 0.05000000 0.04000000
v 0.00000000 0.05000000 0.08000001
v 0.00000000 0.05000000 0.00000000
v 0.00000000 0.10900000 0.00000000
v 0.00000000 0.68199998 0.00000000
v 0.00000000 0.00000000 0.08000001
v 0.00000000 0.00000000 0.00000000
v 0.00000000 0.68199998 0.08000001
v 0.00000000 0.68199998 0.08000001
v 0.00000000 0.68199998 0.00000000
v 0.00000000 0.00000000 0.08000001
v 0.00000000 0.00000000 0.00000000
v 0.00000000 0.00000000 0.00000000
v 0.05900000 0.68199998 0.00000000
v 0.00000000 0.68199998 0.00000000
v 0.05900000 0.00000000 0.00000000
v 0.05900000 0.00000000 0.00000000
v 0.00000000 0.00000000 0.00000000
v 0.05900000 0.68199998 0.00000000
v 0.00000000 0.68199998 0.00000000
v 0.05900000 0.68199998 0.08000001
v 0.00000000 0.00000000 0.08000001
v 0.00000000 0.68199998 0.08000001
v 0.05900000 0.00000000 0.08000001
v 0.05900000 0.00000000 0.08000001
v 0.05900000 0.68199998 0.08000001
v 0.00000000 0.00000000 0.08000001
v 0.00000000 0.68199998 0.08000001
v 0.00000000 0.68199998 0.08000001
v 0.05900000 0.68199998 0.00000000
v 0.00000000 0.68199998 0.00000000
v 0.05900000 0.68199998 0.04000000
v 0.05900000 0.68199998 0.08000001
v 0.00000000 0.00000000 0.00000000
v 0.05900000 0.00000000 0.04000000
v 0.05900000 0.00000000 0.00000000
v 0.00000000 0.00000000 0.08000001
v 0.05900000 0.00000000 0.08000001
v 0.10900000 0.68199998 0.04000000
v 0.07900000 0.00000000 0.04000000
v 0.07900000 0.68199998 0.04000000
v 0.10900000 0.00000000 0.04000000
v 0.10900000 0.00000000 0.04000000
v 0.10900000 0.68199998 0.04000000
v 0.07900000 0.00000000 0.04000000
v 0.07900000 0.68199998 0.04000000
v 0.07900000 0.68199998 0.04000000
v 0.05900000 0.62100005 0.04000000
v 0.05900000 0.68199998 0.04000000
v 0.05900000 0.00000000 0.04000000
v 0.07900000 0.00000000 0.04000000
v 0.07900000 0.00000000 0.04000000
v 0.07900000 0.68199998 0.04000000
v 0.05900000 0.00000000 0.04000000
v 0.05900000 0.62100005 0.04000000
v 0.05900000 0.68199998 0.04000000
v 0.05900000 0.62100005 0.04000000
v 0.05900000 0.00000000 0.08000001
v 0.05900000 0.00000000 0.04000000
v 0.05900000 0.68199998 0.08000001
v 0.05900000 0.68199998 0.04000000
v 0.05900000 0.68199998 0.04000000
v 0.05900000 0.62100005 0.04000000
v 0.05900000 0.68199998 0.08000001
v 0.05900000 0.00000000 0.08000001
v 0.05900000 0.00000000 0.04000000
v 0.05900000 0.68199998 0.00000000
v 0.05900000 0.00000000 0.04000000
v 0.05900000 0.00000000 0.00000000
v 0.05900000 0.62100005 0.04000000
v 0.05900000 0.68199998 0.04000000
v 0.05900000 0.68199998 0.04000000
v 0.05900000 0.68199998 0.00000000
v 0.05900000 0.62100005 0.04000000
v 0.05900000 0.00000000 0.04000000
v 0.05900000 0.00000000 0.00000000
v 0.03000000 0.68199998 0.04000000
v 0.00000000 0.00000000 0.04000000
v 0.00000000 0.68199998 0.04000000
v 0.03000000 0.00000000 0.04000000
v 0.03000000 0.00000000 0.04000000
v 0.03000000 0.68199998 0.04000000
v 0.00000000 0.00000000 0.04000000
v 0.00000000 0.68199998 0.04000000
v 0.10900000 0.68199998 0.08000001
v 0.05000000 0.00000000 0.08000001
v 0.05000000 0.68199998 0.08000001
v 0.10900000 0.00000000 0.08000001
v 0.10900000 0.00000000 0.08000001
v 0.10900000 0.68199998 0.08000001
v 0.05000000 0.00000000 0.08000001
v 0.05000000 0.68199998 0.08000001
v 0.10900000 0.68199998 0.08000001
v 0.10900000 0.00000000 0.00000000
v 0.10900000 0.00000000 0.08000001
v 0.10900000 0.68199998 0.00000000
v 0.10900000 0.68199998 0.00000000
v 0.10900000 0.68199998 0.08000001
v 0.10900000 0.00000000 0.00000000
v 0.10900000 0.00000000 0.08000001
v 0.05000000 0.00000000 0.00000000
v 0.10900000 0.68199998 0.00000000
v 0.05000000 0.68199998 0.00000000
v 0.10900000 0.00000000 0.00000000
v 0.10900000 0.00000000 0.00000000
v 0.05000000 0.00000000 0.00000000
v 0.10900000 0.68199998 0.00000000
v 0.05000000 0.68199998 0.00000000
v 0.05000000 0.68199998 0.00000000
v 0.10900000 0.68199998 0.08000001
v 0.10900000 0.68199998 0.00000000
v 0.05000000 0.68199998 0.04000000
v 0.05000000 0.68199998 0.08000001
v 0.05000000 0.68199998 0.08000001
v 0.05000000 0.00000000 0.04000000
v 0.05000000 0.00000000 0.08000001
v 0.05000000 0.68199998 0.04000000
v 0.05000000 0.68199998 0.04000000
v 0.05000000 0.68199998 0.08000001
v 0.05000000 0.00000000 0.04000000
v 0.05000000 0.00000000 0.08000001
v 0.05000000 0.68199998 0.04000000
v 0.05000000 0.00000000 0.00000000
v 0.05000000 0.00000000 0.04000000
v 0.05000000 0.68199998 0.00000000
v 0.05000000 0.68199998 0.00000000
v 0.05000000 0.68199998 0.04000000
v 0.05000000 0.00000000 0.00000000
v 0.05000000 0.00000000 0.04000000
v 0.05000000 0.68199998 0.04000000
v 0.03000000 0.00000000 0.04000000
v 0.03000000 0.68199998 0.04000000
v 0.05000000 0.00000000 0.04000000
v 0.05000000 0.00000000 0.04000000
v 0.05000000 0.68199998 0.04000000
v 0.03000000 0.00000000 0.04000000
v 0.03000000 0.68199998 0.04000000
v 0.05000000 0.00000000 0.04000000
v 0.10900000 0.00000000 0.00000000
v 0.05000000 0.00000000 0.00000000
v 0.10900000 0.00000000 0.08000001
v 0.05000000 0.00000000 0.08000001
v 0.48199999 0.68199998 0.00000000
v 0.00000000 0.00000000 0.00000000
v 0.00000000 0.68199998 0.00000000
v 0.48199999 0.00000000 0.00000000
v 0.48199999 0.00000000 0.00000000
v 0.48199999 0.68199998 0.00000000
v 0.00000000 0.00000000 0.00000000
v 0.00000000 0.68199998 0.00000000
vn 0.00000000 1.00000000 -0.00000000
vn 0.00000000 1.00000000 -0.00000000
vn 0.00000000 1.00000000 -0.00000000
vn 0.00000000 1.00000000 -0.00000000
vn -0.00000000 -1.00000000 0.00000000
vn -0.00000000 -1.00000000 0.00000000
vn -0.00000000 -1.00000000 0.00000000
vn -0.00000000 -1.00000000 0.00000000
vn 0.00000000 1.00000000 0.00000000
vn 0.00000000 1.00000000 0.00000000
vn 0.00000000 1.00000000 0.00000000
vn 0.00000000 1.00000000 0.00000000
vn -0.00000000 -1.00000000 -0.00000000
vn -0.00000000 -1.00000000 -0.00000000
vn -0.00000000 -1.00000000 -0.00000000
vn -0.00000000 -1.00000000 -0.00000000
vn 1.00000000 0.00000000 -0.00000000
vn 1.00000000 0.00000000 -0.00000000
vn 1.00000000 0.00000000 -0.00000000
vn 1.00000000 0.00000000 -0.00000000
vn -1.00000000 -0.00000000 0.00000000
vn -1.00000000 -0.00000000 0.00000000
vn -1.00000000 -0.00000000 0.00000000
vn -1.00000000 -0.00000000 0.00000000
vn 1.00000000 0.00000000 0.00000000
vn 1.00000000 0.00000000 0.00000000
vn 1.00000000 0.00000000 0.00000000
vn 1.00000000 0.00000000 0.00000000
vn -1.00000000 -0.00000000 -0.00000000
vn -1.00000000 -0.00000000 -0.00000000
vn -1.00000000 -0.00000000 -0.00000000
vn -1.00000000 -0.00000000 -0.00000000
vn 0.00000000 1.00000000 0.00000000
vn 0.00000000 1.00000000 0.00000000
vn 0.00000000 1.00000000 0.00000000
vn 0.00000000 1.00000000 0.00000000
vn -0.00000000 -1.00000000 -0.00000000
vn -0.00000000 -1.00000000 -0.00000000
vn -0.00000000 -1.00000000 -0.00000000
vn -0.00000000 -1.00000000 -0.00000000
vn -0.00000000 0.00000000 -1.00000000
vn -0.00000000 0.00000000 -1.00000000
vn -0.00000000 0.00000000 -1.00000000
vn -0.00000000 0.00000000 -1.00000000
vn -0.00000000 0.00000000 -1.00000000
vn -0.00000000 0.00000000 -1.00000000
vn 0.00000000 -0.00000000 1.00000000
vn 0.00000000 -0.00000000 1.00000000
vn 0.00000000 -0.00000000 1.00000000
vn 0.00000000 -0.00000000 1.00000000
vn 0.00000000 -0.00000000 1.00000000
vn 0.00000000 -0.00000000 1.00000000
vn 0.00000000 -0.00000000 1.00000000
vn 0.00000000 -0.00000000 1.00000000
vn 0.00000000 -0.00000000 1.00000000
vn 0.00000000 -0.00000000 1.00000000
vn 0.00000000 -0.00000000 1.00000000
vn 0.00000000 -0.00000000 1.00000000
vn -0.00000000 0.00000000 -1.00000000
vn -0.00000000 0.00000000 -1.00000000
vn -0.00000000 0.00000000 -1.00000000
vn -0.00000000 0.00000000 -1.00000000
vn -0.00000000 0.00000000 -1.00000000
vn -0.00000000 0.00000000 -1.00000000
vn 1.00000000 0.00000000 0.00000000
vn 1.00000000 0.00000000 0.00000000
vn 1.00000000 0.00000000 0.00000000
vn 1.00000000 0.00000000 0.00000000
vn -1.00000000 -0.00000000 -0.00000000
vn -1.00000000 -0.00000000 -0.00000000
vn -1.00000000 -0.00000000 -0.00000000
vn -1.00000000 -0.00000000 -0.00000000
vn -0.00000000 0.00000000 -1.00000000
vn -0.00000000 0.00000000 -1.00000000
vn -0.00000000 0.00000000 -1.00000000
vn -0.00000000 0.00000000 -1.00000000
vn 0.00000000 -0.00000000 1.00000000
vn 0.00000000 -0.00000000 1.00000000
vn 0.00000000 -0.00000000 1.00000000
vn 0.00000000 -0.00000000 1.00000000
vn -0.00000000 0.00000000 -1.00000000
vn -0.00000000 0.00000000 -1.00000000
vn -0.00000000 0.00000000 -1.00000000
vn -0.00000000 0.00000000 -1.00000000
vn -0.00000000 0.00000000 -1.00000000
vn -0.00000000 0.00000000 -1.00000000
vn 0.00000000 -0.00000000 1.00000000
vn 0.00000000 -0.00000000 1.00000000
vn 0.00000000 -0.00000000 1.00000000
vn 0.00000000 -0.00000000 1.00000000
vn 0.00000000 -0.00000000 1.00000000
vn 0.00000000 -0.00000000 1.00000000
vn -1.00000000 -0.00000000 -0.00000000
vn -1.00000000 -0.00000000 -0.00000000
vn -1.00000000 -0.00000000 -0.00000000
vn -1.00000000 -0.00000000 -0.00000000
vn 1.00000000 0.00000000 0.00000000
vn 1.00000000 0.00000000 0.00000000
vn 1.00000000 0.00000000 0.00000000
vn 1.00000000 0.00000000 0.00000000
vn -0.00000000 0.00000000 -1.00000000
vn -0.00000000 0.00000000 -1.00000000
vn -0.00000000 0.00000000 -1.00000000
vn -0.00000000 0.00000000 -1.00000000
vn -0.00000000 0.00000000 -1.00000000
vn -0.00000000 0.00000000 -1.00000000
vn 0.00000000 -0.00000000 1.00000000
vn 0.00000000 -0.00000000 1.00000000
vn 0.00000000 -0.00000000 1.00000000
vn 0.00000000 -0.00000000 1.00000000
vn 0.00000000 -0.00000000 1.00000000
vn 0.00000000 -0.00000000 1.00000000
vn 0.00000000 -0.00000000 1.00000000
vn 0.00000000 -0.00000000 1.00000000
vn 0.00000000 -0.00000000 1.00000000
vn 0.00000000 -0.00000000 1.00000000
vn 0.00000000 -0.00000000 1.00000000
vn 0.00000000 -0.00000000 1.00000000
vn -0.00000000 0.00000000 -1.00000000
vn -0.00000000 0.00000000 -1.00000000
vn -0.00000000 0.00000000 -1.00000000
vn -0.00000000 0.00000000 -1.00000000
vn -0.00000000 0.00000000 -1.00000000
vn -0.00000000 0.00000000 -1.00000000
vn 0.00000000 1.00000000 0.00000000
vn 0.00000000 1.00000000 0.00000000
vn 0.00000000 1.00000000 0.00000000
vn 0.00000000 1.00000000 0.00000000
vn -0.00000000 -1.00000000 -0.00000000
vn -0.00000000 -1.00000000 -0.00000000
vn -0.00000000 -1.00000000 -0.00000000
vn -0.00000000 -1.00000000 -0.00000000
vn 0.00000000 1.00000000 0.00000000
vn 0.00000000 1.00000000 0.00000000
vn 0.00000000 1.00000000 0.00000000
vn 0.00000000 1.00000000 0.00000000
vn -0.00000000 -1.00000000 -0.00000000
vn -0.00000000 -1.00000000 -0.00000000
vn -0.00000000 -1.00000000 -0.00000000
vn -0.00000000 -1.00000000 -0.00000000
vn 0.00000000 1.00000000 0.00000000
vn 0.00000000 1.00000000 0.00000000
vn 0.00000000 1.00000000 0.00000000
vn 0.00000000 1.00000000 0.00000000
vn -0.00000000 -1.00000000 -0.00000000
vn -0.00000000 -1.00000000 -0.00000000
vn -0.00000000 -1.00000000 -0.00000000
vn -0.00000000 -1.00000000 -0.00000000
vn -1.00000000 -0.00000000 -0.00000000
vn -1.00000000 -0.00000000 -0.00000000
vn -1.00000000 -0.00000000 -0.00000000
vn -1.00000000 -0.00000000 -0.00000000
vn 1.00000000 0.00000000 0.00000000
vn 1.00000000 0.00000000 0.00000000
vn 1.00000000 0.00000000 0.00000000
vn 1.00000000 0.00000000 0.00000000
vn -1.00000000 -0.00000000 0.00000000
vn -1.00000000 -0.00000000 0.00000000
vn -1.00000000 -0.00000000 0.00000000
vn -1.00000000 -0.00000000 0.00000000
vn 1.00000000 0.00000000 -0.00000000
vn 1.00000000 0.00000000 -0.00000000
vn 1.00000000 0.00000000 -0.00000000
vn 1.00000000 0.00000000 -0.00000000
vn -0.00000000 0.00000000 -1.00000000
vn -0.00000000 0.00000000 -1.00000000
vn -0.00000000 0.00000000 -1.00000000
vn -0.00000000 0.00000000 -1.00000000
vn 0.00000000 -0.00000000 1.00000000
vn 0.00000000 -0.00000000 1.00000000
vn 0.00000000 -0.00000000 1.00000000
vn 0.00000000 -0.00000000 1.00000000
vn -0.00000000 0.00000000 -1.00000000
vn -0.00000000 0.00000000 -1.00000000
vn -0.00000000 0.00000000 -1.00000000
vn -0.00000000 0.00000000 -1.00000000
vn -0.00000000 0.00000000 -1.00000000
vn -0.00000000 0.00000000 -1.00000000
vn 0.00000000 -0.00000000 1.00000000
vn 0.00000000 -0.00000000 1.00000000
vn 0.00000000 -0.00000000 1.00000000
vn 0.00000000 -0.00000000 1.00000000
vn 0.00000000 -0.00000000 1.00000000
vn 0.00000000 -0.00000000 1.00000000
vn -0.00000000 0.00000000 -1.00000000
vn -0.00000000 0.00000000 -1.00000000
vn -0.00000000 0.00000000 -1.00000000
vn -0.00000000 0.00000000 -1.00000000
vn 0.00000000 -0.00000000 1.00000000
vn 0.00000000 -0.00000000 1.00000000
vn 0.00000000 -0.00000000 1.00000000
vn 0.00000000 -0.00000000 1.00000000
vn -0.00000000 0.00000000 -1.00000000
vn -0.00000000 0.00000000 -1.00000000
vn -0.00000000 0.00000000 -1.00000000
vn -0.00000000 0.00000000 -1.00000000
vn -0.00000000 0.00000000 -1.00000000
vn -0.00000000 0.00000000 -1.00000000
vn 0.00000000 -0.00000000 1.00000000
vn 0.00000000 -0.00000000 1.00000000
vn 0.00000000 -0.00000000 1.00000000
vn 0.00000000 -0.00000000 1.00000000
vn 0.00000000 -0.00000000 1.00000000
vn 0.00000000 -0.00000000 1.00000000
vn 0.00000000 -1.00000000 0.00000000
vn 0.00000000 -1.00000000 0.00000000
vn 0.00000000 -1.00000000 0.00000000
vn 0.00000000 -1.00000000 0.00000000
vn -0.00000000 1.00000000 -0.00000000
vn -0.00000000 1.00000000 -0.00000000
vn -0.00000000 1.00000000 -0.00000000
vn -0.00000000 1.00000000 -0.00000000
vn 0.00000000 -1.00000000 0.00000000
vn 0.00000000 -1.00000000 0.00000000
vn -0.00000000 1.00000000 -0.00000000
vn -0.00000000 1.00000000 -0.00000000
vn 1.00000000 0.00000000 -0.00000000
vn 1.00000000 0.00000000 -0.00000000
vn 1.00000000 0.00000000 -0.00000000
vn 1.00000000 0.00000000 -0.00000000
vn -1.00000000 -0.00000000 0.00000000
vn -1.00000000 -0.00000000 0.00000000
vn -1.00000000 -0.00000000 0.00000000
vn -1.00000000 -0.00000000 0.00000000
vn 1.00000000 -0.00000000 0.00000000
vn 1.00000000 -0.00000000 0.00000000
vn 1.00000000 -0.00000000 0.00000000
vn 1.00000000 -0.00000000 0.00000000
vn -1.00000000 0.00000000 -0.00000000
vn -1.00000000 0.00000000 -0.00000000
vn -1.00000000 0.00000000 -0.00000000
vn -1.00000000 0.00000000 -0.00000000
vn 0.00000000 -0.00000000 1.00000000
vn 0.00000000 -0.00000000 1.00000000
vn 0.00000000 -0.00000000 1.00000000
vn 0.00000000 -0.00000000 1.00000000
vn 0.00000000 -0.00000000 1.00000000
vn 0.00000000 -0.00000000 1.00000000
vn -0.00000000 0.00000000 -1.00000000
vn -0.00000000 0.00000000 -1.00000000
vn -0.00000000 0.00000000 -1.00000000
vn -0.00000000 0.00000000 -1.00000000
vn -0.00000000 0.00000000 -1.00000000
vn -0.00000000 0.00000000 -1.00000000
vn 1.00000000 0.00000000 -0.00000000
vn 1.00000000 0.00000000 -0.00000000
vn 1.00000000 0.00000000 -0.00000000
vn 1.00000000 0.00000000 -0.00000000
vn -1.00000000 -0.00000000 0.00000000
vn -1.00000000 -0.00000000 0.00000000
vn -1.00000000 -0.00000000 0.00000000
vn -1.00000000 -0.00000000 0.00000000
vn 0.00000000 -1.00000000 0.00000000
vn 0.00000000 -1.00000000 0.00000000
vn 0.00000000 -1.00000000 0.00000000
vn 0.00000000 -1.00000000 0.00000000
vn -0.00000000 1.00000000 -0.00000000
vn -0.00000000 1.00000000 -0.00000000
vn -0.00000000 1.00000000 -0.00000000
vn -0.00000000 1.00000000 -0.00000000
vn -0.00000000 0.00000000 -1.00000000
vn -0.00000000 0.00000000 -1.00000000
vn -0.00000000 0.00000000 -1.00000000
vn -0.00000000 0.00000000 -1.00000000
vn -0.00000000 0.00000000 -1.00000000
vn -0.00000000 0.00000000 -1.00000000
vn 0.00000000 -0.00000000 1.00000000
vn 0.00000000 -0.00000000 1.00000000
vn 0.00000000 -0.00000000 1.00000000
vn 0.00000000 -0.00000000 1.00000000
vn 0.00000000 -0.00000000 1.00000000
vn 0.00000000 -0.00000000 1.00000000
vn -1.00000000 -0.00000000 -0.00000000
vn -1.00000000 -0.00000000 -0.00000000
vn -1.00000000 -0.00000000 -0.00000000
vn -1.00000000 -0.00000000 -0.00000000
vn 1.00000000 0.00000000 0.00000000
vn 1.00000000 0.00000000 0.00000000
vn 1.00000000 0.00000000 0.00000000
vn 1.00000000 0.00000000 0.00000000
vn 0.00000000 -0.00000000 1.00000000
vn 0.00000000 -0.00000000 1.00000000
vn 0.00000000 -0.00000000 1.00000000
vn 0.00000000 -0.00000000 1.00000000
vn 0.00000000 -0.00000000 1.00000000
vn 0.00000000 -0.00000000 1.00000000
vn -0.00000000 0.00000000 -1.00000000
vn -0.00000000 0.00000000 -1.00000000
vn -0.00000000 0.00000000 -1.00000000
vn -0.00000000 0.00000000 -1.00000000
vn -0.00000000 0.00000000 -1.00000000
vn -0.00000000 0.00000000 -1.00000000
vn -0.00000000 0.00000000 -1.00000000
vn -0.00000000 0.00000000 -1.00000000
vn -0.00000000 0.00000000 -1.00000000
vn -0.00000000 0.00000000 -1.00000000
vn -0.00000000 0.00000000 -1.00000000
vn -0.00000000 0.00000000 -1.00000000
vn 0.00000000 -0.00000000 1.00000000
vn 0.00000000 -0.00000000 1.00000000
vn 0.00000000 -0.00000000 1.00000000
vn 0.00000000 -0.00000000 1.00000000
vn 0.00000000 -0.00000000 1.00000000
vn 0.00000000 -0.00000000 1.00000000
vn 0.00000000 -1.00000000 0.00000000
vn 0.00000000 -1.00000000 0.00000000
vn 0.00000000 -1.00000000 0.00000000
vn 0.00000000 -1.00000000 0.00000000
vn -0.00000000 1.00000000 -0.00000000
vn -0.00000000 1.00000000 -0.00000000
vn -0.00000000 1.00000000 -0.00000000
vn -0.00000000 1.00000000 -0.00000000
vn -1.00000000 -0.00000000 0.00000000
vn -1.00000000 -0.00000000 0.00000000
vn -1.00000000 -0.00000000 0.00000000
vn -1.00000000 -0.00000000 0.00000000
vn 1.00000000 0.00000000 -0.00000000
vn 1.00000000 0.00000000 -0.00000000
vn 1.00000000 0.00000000 -0.00000000
vn 1.00000000 0.00000000 -0.00000000
vn -1.00000000 -0.00000000 -0.00000000
vn -1.00000000 -0.00000000 -0.00000000
vn -1.00000000 -0.00000000 -0.00000000
vn -1.00000000 -0.00000000 -0.00000000
vn 1.00000000 0.00000000 0.00000000
vn 1.00000000 0.00000000 0.00000000
vn 1.00000000 0.00000000 0.00000000
vn 1.00000000 0.00000000 0.00000000
vn 0.00000000 -1.00000000 0.00000000
vn 0.00000000 -1.00000000 0.00000000
vn 0.00000000 -1.00000000 0.00000000
vn 0.00000000 -1.00000000 0.00000000
vn -0.00000000 1.00000000 -0.00000000
vn -0.00000000 1.00000000 -0.00000000
vn -0.00000000 1.00000000 -0.00000000
vn -0.00000000 1.00000000 -0.00000000
vn 0.00000000 -1.00000000 0.00000000
vn 0.00000000 -1.00000000 0.00000000
vn -0.00000000 1.00000000 -0.00000000
vn -0.00000000 1.00000000 -0.00000000
vn -0.00000000 0.00000000 -1.00000000
vn -0.00000000 0.00000000 -1.00000000
vn -0.00000000 0.00000000 -1.00000000
vn -0.00000000 0.00000000 -1.00000000
vn 0.00000000 -0.00000000 1.00000000
vn 0.00000000 -0.00000000 1.00000000
vn 0.00000000 -0.00000000 1.00000000
vn 0.00000000 -0.00000000 1.00000000
vn -0.00000000 0.00000000 -1.00000000
vn -0.00000000 0.00000000 -1.00000000
vn -0.00000000 0.00000000 -1.00000000
vn -0.00000000 0.00000000 -1.00000000
vn -0.00000000 0.00000000 -1.00000000
vn -0.00000000 0.00000000 -1.00000000
vn 0.00000000 -0.00000000 1.00000000
vn 0.00000000 -0.00000000 1.00000000
vn 0.00000000 -0.00000000 1.00000000
vn 0.00000000 -0.00000000 1.00000000
vn 0.00000000 -0.00000000 1.00000000
vn 0.00000000 -0.00000000 1.00000000
vn -1.00000000 0.00000000 0.00000000
vn -1.00000000 0.00000000 0.00000000
vn -1.00000000 0.00000000 0.00000000
vn -1.00000000 0.00000000 0.00000000
vn -1.00000000 0.00000000 0.00000000
vn -0.00000000 0.00000000 -1.00000000
vn -0.00000000 0.00000000 -1.00000000
vn -0.00000000 0.00000000 -1.00000000
vn -0.00000000 0.00000000 -1.00000000
vn 0.00000000 -0.00000000 1.00000000
vn 0.00000000 -0.00000000 1.00000000
vn 0.00000000 -0.00000000 1.00000000
vn 0.00000000 -0.00000000 1.00000000
vn 0.00000000 1.00000000 0.00000000
vn 0.00000000 1.00000000 0.00000000
vn 0.00000000 1.00000000 0.00000000
vn 0.00000000 1.00000000 0.00000000
vn -0.00000000 -1.00000000 -0.00000000
vn -0.00000000 -1.00000000 -0.00000000
vn -0.00000000 -1.00000000 -0.00000000
vn -0.00000000 -1.00000000 -0.00000000
vn 0.00000000 1.00000000 0.00000000
vn 0.00000000 1.00000000 0.00000000
vn 0.00000000 1.00000000 0.00000000
vn 0.00000000 1.00000000 0.00000000
vn -0.00000000 -1.00000000 -0.00000000
vn -0.00000000 -1.00000000 -0.00000000
vn -0.00000000 -1.00000000 -0.00000000
vn -0.00000000 -1.00000000 -0.00000000
vn 0.00000000 -0.00000000 1.00000000
vn 0.00000000 -0.00000000 1.00000000
vn 0.00000000 -0.00000000 1.00000000
vn 0.00000000 -0.00000000 1.00000000
vn -0.00000000 0.00000000 -1.00000000
vn -0.00000000 0.00000000 -1.00000000
vn -0.00000000 0.00000000 -1.00000000
vn -0.00000000 0.00000000 -1.00000000
vn 0.00000000 1.00000000 0.00000000
vn 0.00000000 1.00000000 0.00000000
vn 0.00000000 1.00000000 0.00000000
vn 0.00000000 1.00000000 0.00000000
vn -0.00000000 -1.00000000 -0.00000000
vn -0.00000000 -1.00000000 -0.00000000
vn -0.00000000 -1.00000000 -0.00000000
vn -0.00000000 -1.00000000 -0.00000000
vn -0.00000000 0.00000000 -1.00000000
vn -0.00000000 0.00000000 -1.00000000
vn -0.00000000 0.00000000 -1.00000000
vn -0.00000000 0.00000000 -1.00000000
vn 0.00000000 -0.00000000 1.00000000
vn 0.00000000 -0.00000000 1.00000000
vn 0.00000000 -0.00000000 1.00000000
vn 0.00000000 -0.00000000 1.00000000
vn -0.00000000 0.00000000 -1.00000000
vn -0.00000000 0.00000000 -1.00000000
vn -0.00000000 0.00000000 -1.00000000
vn -0.00000000 0.00000000 -1.00000000
vn 0.00000000 -0.00000000 1.00000000
vn 0.00000000 -0.00000000 1.00000000
vn 0.00000000 -0.00000000 1.00000000
vn 0.00000000 -0.00000000 1.00000000
vn -1.00000000 0.00000000 0.00000000
vn -1.00000000 0.00000000 0.00000000
vn -1.00000000 0.00000000 0.00000000
vn -1.00000000 0.00000000 0.00000000
vn -1.00000000 0.00000000 0.00000000
vn -0.00000000 0.00000000 -1.00000000
vn -0.00000000 0.00000000 -1.00000000
vn -0.00000000 0.00000000 -1.00000000
vn -0.00000000 0.00000000 -1.00000000
vn 0.00000000 -0.00000000 1.00000000
vn 0.00000000 -0.00000000 1.00000000
vn 0.00000000 -0.00000000 1.00000000
vn 0.00000000 -0.00000000 1.00000000
vn 0.00000000 -1.00000000 0.00000000
vn 0.00000000 -1.00000000 0.00000000
vn 0.00000000 -1.00000000 0.00000000
vn 0.00000000 -1.00000000 0.00000000
vn -0.00000000 1.00000000 -0.00000000
vn -0.00000000 1.00000000 -0.00000000
vn -0.00000000 1.00000000 -0.00000000
vn -0.00000000 1.00000000 -0.00000000
vn 0.00000000 -0.00000000 1.00000000
vn 0.00000000 -0.00000000 1.00000000
vn 0.00000000 -0.00000000 1.00000000
vn 0.00000000 -0.00000000 1.00000000
vn -0.00000000 0.00000000 -1.00000000
vn -0.00000000 0.00000000 -1.00000000
vn -0.00000000 0.00000000 -1.00000000
vn -0.00000000 0.00000000 -1.00000000
vn -1.00000000 0.00000000 0.00000000
vn -1.00000000 0.00000000 0.00000000
vn -1.00000000 0.00000000 0.00000000
vn -1.00000000 0.00000000 0.00000000
vn -1.00000000 0.00000000 0.00000000
vn -0.00000000 0.00000000 -1.00000000
vn -0.00000000 0.00000000 -1.00000000
vn -0.00000000 0.00000000 -1.00000000
vn -0.00000000 0.00000000 -1.00000000
vn 0.00000000 -0.00000000 1.00000000
vn 0.00000000 -0.00000000 1.00000000
vn 0.00000000 -0.00000000 1.00000000
vn 0.00000000 -0.00000000 1.00000000
vn 0.00000000 -1.00000000 0.00000000
vn 0.00000000 -1.00000000 0.00000000
vn 0.00000000 -1.00000000 0.00000000
vn 0.00000000 -1.00000000 0.00000000
vn -0.00000000 1.00000000 -0.00000000
vn -0.00000000 1.00000000 -0.00000000
vn -0.00000000 1.00000000 -0.00000000
vn -0.00000000 1.00000000 -0.00000000
vn 0.00000000 -1.00000000 0.00000000
vn 0.00000000 -1.00000000 0.00000000
vn -0.00000000 1.00000000 -0.00000000
vn -0.00000000 1.00000000 -0.00000000
vn -0.00000000 -0.00000000 -1.00000000
vn -0.00000000 -0.00000000 -1.00000000
vn -0.00000000 -0.00000000 -1.00000000
vn -0.00000000 -0.00000000 -1.00000000
vn 0.00000000 0.00000000 1.00000000
vn 0.00000000 0.00000000 1.00000000
vn 0.00000000 0.00000000 1.00000000
vn 0.00000000 0.00000000 1.00000000
vn -1.00000000 0.00000000 0.00000000
vn -1.00000000 0.00000000 0.00000000
vn -1.00000000 0.00000000 0.00000000
vn -1.00000000 0.00000000 0.00000000
vn -1.00000000 0.00000000 0.00000000
vn 1.00000000 0.00000000 0.00000000
vn 1.00000000 0.00000000 0.00000000
vn 1.00000000 0.00000000 0.00000000
vn 1.00000000 0.00000000 0.00000000
vn -1.00000000 -0.00000000 -0.00000000
vn -1.00000000 -0.00000000 -0.00000000
vn -1.00000000 -0.00000000 -0.00000000
vn -1.00000000 -0.00000000 -0.00000000
vn -0.00000000 -0.00000000 1.00000000
vn -0.00000000 -0.00000000 1.00000000
vn -0.00000000 -0.00000000 1.00000000
vn -0.00000000 -0.00000000 1.00000000
vn 0.00000000 0.00000000 -1.00000000
vn 0.00000000 0.00000000 -1.00000000
vn 0.00000000 0.00000000 -1.00000000
vn 0.00000000 0.00000000 -1.00000000
vn -0.00000000 0.00000000 -1.00000000
vn -0.00000000 0.00000000 -1.00000000
vn -0.00000000 0.00000000 -1.00000000
vn -0.00000000 0.00000000 -1.00000000
vn 0.00000000 -0.00000000 1.00000000
vn 0.00000000 -0.00000000 1.00000000
vn 0.00000000 -0.00000000 1.00000000
vn 0.00000000 -0.00000000 1.00000000
vn 0.00000000 1.00000000 0.00000000
vn 0.00000000 1.00000000 0.00000000
vn 0.00000000 1.00000000 0.00000000
vn 0.00000000 1.00000000 0.00000000
vn 0.00000000 1.00000000 0.00000000
vn 0.00000000 1.00000000 0.00000000
vn 0.00000000 1.00000000 0.00000000
vn 0.00000000 1.00000000 0.00000000
vn 0.00000000 1.00000000 0.00000000
vn 0.00000000 1.00000000 0.00000000
vn -0.00000000 0.00000000 -1.00000000
vn -0.00000000 0.00000000 -1.00000000
vn -0.00000000 0.00000000 -1.00000000
vn -0.00000000 0.00000000 -1.00000000
vn 0.00000000 -0.00000000 1.00000000
vn 0.00000000 -0.00000000 1.00000000
vn 0.00000000 -0.00000000 1.00000000
vn 0.00000000 -0.00000000 1.00000000
vn -0.00000000 0.00000000 -1.00000000
vn -0.00000000 0.00000000 -1.00000000
vn -0.00000000 0.00000000 -1.00000000
vn -0.00000000 0.00000000 -1.00000000
vn -0.00000000 0.00000000 -1.00000000
vn 0.00000000 -0.00000000 1.00000000
vn 0.00000000 -0.00000000 1.00000000
vn 0.00000000 -0.00000000 1.00000000
vn 0.00000000 -0.00000000 1.00000000
vn 0.00000000 -0.00000000 1.00000000
vn 1.00000000 0.00000000 -0.00000000
vn 1.00000000 0.00000000 -0.00000000
vn 1.00000000 0.00000000 -0.00000000
vn 1.00000000 0.00000000 -0.00000000
vn 1.00000000 0.00000000 -0.00000000
vn -1.00000000 -0.00000000 0.00000000
vn -1.00000000 -0.00000000 0.00000000
vn -1.00000000 -0.00000000 0.00000000
vn -1.00000000 -0.00000000 0.00000000
vn -1.00000000 -0.00000000 0.00000000
vn 1.00000000 0.00000000 0.00000000
vn 1.00000000 0.00000000 0.00000000
vn 1.00000000 0.00000000 0.00000000
vn 1.00000000 0.00000000 0.00000000
vn 1.00000000 0.00000000 0.00000000
vn -1.00000000 -0.00000000 -0.00000000
vn -1.00000000 -0.00000000 -0.00000000
vn -1.00000000 -0.00000000 -0.00000000
vn -1.00000000 -0.00000000 -0.00000000
vn -1.00000000 -0.00000000 -0.00000000
vn -0.00000000 0.00000000 -1.00000000
vn -0.00000000 0.00000000 -1.00000000
vn -0.00000000 0.00000000 -1.00000000
vn -0.00000000 0.00000000 -1.00000000
vn 0.00000000 -0.00000000 1.00000000
vn 0.00000000 -0.00000000 1.00000000
vn 0.00000000 -0.00000000 1.00000000
vn 0.00000000 -0.00000000 1.00000000
vn -0.00000000 0.00000000 -1.00000000
vn -0.00000000 0.00000000 -1.00000000
vn -0.00000000 0.00000000 -1.00000000
vn -0.00000000 0.00000000 -1.00000000
vn 0.00000000 -0.00000000 1.00000000
vn 0.00000000 -0.00000000 1.00000000
vn 0.00000000 -0.00000000 1.00000000
vn 0.00000000 -0.00000000 1.00000000
vn -1.00000000 -0.00000000 0.00000000
vn -1.00000000 -0.00000000 0.00000000
vn -1.00000000 -0.00000000 0.00000000
vn -1.00000000 -0.00000000 0.00000000
vn 1.00000000 0.00000000 -0.00000000
vn 1.00000000 0.00000000 -0.00000000
vn 1.00000000 0.00000000 -0.00000000
vn 1.00000000 0.00000000 -0.00000000
vn -0.00000000 -0.00000000 1.00000000
vn -0.00000000 -0.00000000 1.00000000
vn -0.00000000 -0.00000000 1.00000000
vn -0.00000000 -0.00000000 1.00000000
vn 0.00000000 0.00000000 -1.00000000
vn 0.00000000 0.00000000 -1.00000000
vn 0.00000000 0.00000000 -1.00000000
vn 0.00000000 0.00000000 -1.00000000
vn 0.00000000 1.00000000 0.00000000
vn 0.00000000 1.00000000 0.00000000
vn 0.00000000 1.00000000 0.00000000
vn 0.00000000 1.00000000 0.00000000
vn 0.00000000 1.00000000 0.00000000
vn -1.00000000 -0.00000000 0.00000000
vn -1.00000000 -0.00000000 0.00000000
vn -1.00000000 -0.00000000 0.00000000
vn -1.00000000 -0.00000000 0.00000000
vn 1.00000000 0.00000000 -0.00000000
vn 1.00000000 0.00000000 -0.00000000
vn 1.00000000 0.00000000 -0.00000000
vn 1.00000000 0.00000000 -0.00000000
vn -1.00000000 -0.00000000 -0.00000000
vn -1.00000000 -0.00000000 -0.00000000
vn -1.00000000 -0.00000000 -0.00000000
vn -1.00000000 -0.00000000 -0.00000000
vn 1.00000000 0.00000000 0.00000000
vn 1.00000000 0.00000000 0.00000000
vn 1.00000000 0.00000000 0.00000000
vn 1.00000000 0.00000000 0.00000000
vn -0.00000000 0.00000000 -1.00000000
vn -0.00000000 0.00000000 -1.00000000
vn -0.00000000 0.00000000 -1.00000000
vn -0.00000000 0.00000000 -1.00000000
vn 0.00000000 -0.00000000 1.00000000
vn 0.00000000 -0.00000000 1.00000000
vn 0.00000000 -0.00000000 1.00000000
vn 0.00000000 -0.00000000 1.00000000
vn 0.00000000 1.00000000 0.00000000
vn 0.00000000 1.00000000 0.00000000
vn 0.00000000 1.00000000 0.00000000
vn 0.00000000 1.00000000 0.00000000
vn 0.00000000 1.00000000 0.00000000
vn -0.00000000 0.00000000 -1.00000000
vn -0.00000000 0.00000000 -1.00000000
vn -0.00000000 0.00000000 -1.00000000
vn -0.00000000 0.00000000 -1.00000000
vn 0.00000000 -0.00000000 1.00000000
vn 0.00000000 -0.00000000 1.00000000
vn 0.00000000 -0.00000000 1.00000000
vn 0.00000000 -0.00000000 1.00000000
vt 0.16458333 0.34821429
vt 0.16458333 0.34821429
vt 0.16458333 0.34821429
vt 0.16458333 0.34821429
vt 0.16458333 0.34821429
vt 0.16458333 0.34821429
vt 0.16458333 0.34821429
vt 0.16458333 0.34821429
vt 0.16458333 0.34821429
vt 0.16458333 0.34821429
vt 0.16458333 0.34821429
vt 0.16458333 0.34821429
vt 0.16458333 0.34821429
vt 0.16458333 0.34821429
vt 0.16458333 0.34821429
vt 0.16458333 0.34821429
vt 0.16458333 0.34821429
vt 0.16458333 0.34821429
vt 0.16458333 0.34821429
vt 0.16458333 0.34821429
vt 0.16458333 0.34821429
vt 0.16458333 0.34821429
vt 0.16458333 0.34821429
vt 0.16458333 0.34821429
vt 0.16458333 0.34821429
vt 0.16458333 0.34821429
vt 0.16458333 0.34821429
vt 0.16458333 0.34821429
vt 0.16458333 0.34821429
vt 0.16458333 0.34821429
vt 0.16458333 0.34821429
vt 0.16458333 0.34821429
vt 0.16458333 0.34821429
vt 0.16458333 0.34821429
vt 0.16458333 0.34821429
vt 0.16458333 0.34821429
vt 0.16458333 0.34821429
vt 0.16458333 0.34821429
vt 0.16458333 0.34821429
vt 0.16458333 0.34821429
vt 0.16458333 0.34821429
vt 0.16458333 0.34821429
vt 0.16458333 0.34821429
vt 0.16458333 0.34821429
vt 0.16458333 0.34821429
vt 0.16458333 0.34821429
vt 0.16458333 0.34821429
vt 0.16458333 0.34821429
vt 0.16458333 0.34821429
vt 0.16458333 0.34821429
vt 0.16458333 0.34821429
vt 0.16458333 0.34821429
vt 0.16458333 0.34821429
vt 0.16458333 0.34821429
vt 0.16458333 0.34821429
vt 0.16458333 0.34821429
vt 0.16458333 0.34821429
vt 0.16458333 0.34821429
vt 0.16458333 0.34821429
vt 0.16458333 0.34821429
vt 0.16458333 0.34821429
vt 0.16458333 0.34821429
vt 0.16458333 0.34821429
vt 0.16458333 0.34821429
vt 0.16458333 0.34821429
vt 0.16458333 0.34821429
vt 0.16458333 0.34821429
vt 0.16458333 0.34821429
vt 0.16458333 0.34821429
vt 0.16458333 0.34821429
vt 0.16458333 0.34821429
vt 0.16458333 0.34821429
vt 0.16458333 0.34821429
vt 0.16458333 0.34821429
vt 0.16458333 0.34821429
vt 0.16458333 0.34821429
vt 0.16458333 0.34821429
vt 0.16458333 0.34821429
vt 0.16458333 0.34821429
vt 0.16458333 0.34821429
vt 0.56458333 0.34821429
vt 0.56458333 0.34821429
vt 0.56458333 0.34821429
vt 0.56458333 0.34821429
vt 0.56458333 0.34821429
vt 0.56458333 0.34821429
vt 0.56458333 0.34821429
vt 0.56458333 0.34821429
vt 0.56458333 0.34821429
vt 0.56458333 0.34821429
vt 0.56458333 0.34821429
vt 0.56458333 0.34821429
vt 0.16458333 0.34821429
vt 0.16458333 0.34821429
vt 0.16458333 0.34821429
vt 0.16458333 0.34821429
vt 0.16458333 0.34821429
vt 0.16458333 0.34821429
vt 0.16458333 0.34821429
vt 0.16458333 0.34821429
vt 0.16458333 0.34821429
vt 0.16458333 0.34821429
vt 0.16458333 0.34821429
vt 0.16458333 0.34821429
vt 0.16458333 0.34821429
vt 0.16458333 0.34821429
vt 0.16458333 0.34821429
vt 0.16458333 0.34821429
vt 0.16458333 0.34821429
vt 0.16458333 0.34821429
vt 0.16458333 0.34821429
vt 0.16458333 0.34821429
vt 0.16458333 0.34821429
vt 0.16458333 0.34821429
vt 0.16458333 0.34821429
vt 0.16458333 0.34821429
vt 0.16458333 0.34821429
vt 0.16458333 0.34821429
vt 0.16458333 0.34821429
vt 0.16458333 0.34821429
vt 0.16458333 0.34821429
vt 0.16458333 0.34821429
vt 0.16458333 0.34821429
vt 0.16458333 0.34821429
vt 0.16458333 0.34821429
vt 0.16458333 0.34821429
vt 0.16458333 0.34821429
vt 0.16458333 0.34821429
vt 0.16458333 0.34821429
vt 0.16458333 0.34821429
vt 0.16458333 0.34821429
vt 0.16458333 0.34821429
vt 0.16458333 0.34821429
vt 0.16458333 0.34821429
vt 0.16458333 0.34821429
vt 0.16458333 0.34821429
vt 0.16458333 0.34821429
vt 0.16458333 0.34821429
vt 0.16458333 0.34821429
vt 0.16458333 0.34821429
vt 0.16458333 0.34821429
vt 0.16458333 0.34821429
vt 0.16458333 0.34821429
vt 0.16458333 0.34821429
vt 0.16458333 0.34821429
vt 0.16458333 0.34821429
vt 0.16458333 0.34821429
vt 0.16458333 0.34821429
vt 0.16458333 0.34821429
vt 0.16458333 0.34821429
vt 0.16458333 0.34821429
vt 0.16458333 0.34821429
vt 0.16458333 0.34821429
vt 0.16458333 0.34821429
vt 0.16458333 0.34821429
vt 0.16458333 0.34821429
vt 0.16458333 0.34821429
vt 0.16458333 0.34821429
vt 0.16458333 0.34821429
vt 0.16458333 0.34821429
vt 0.16458333 0.34821429
vt 0.16458333 0.34821429
vt 0.16458333 0.34821429
vt 0.16458333 0.34821429
vt 0.16458333 0.34821429
vt 0.16458333 0.34821429
vt 0.16458333 0.34821429
vt 0.16458333 0.34821429
vt 0.16458333 0.34821429
vt 0.16458333 0.34821429
vt 0.16458333 0.34821429
vt 0.16458333 0.34821429
vt 0.56458333 0.34821429
vt 0.56458333 0.34821429
vt 0.56458333 0.34821429
vt 0.56458333 0.34821429
vt 0.56458333 0.34821429
vt 0.56458333 0.34821429
vt 0.56458333 0.34821429
vt 0.56458333 0.34821429
vt 0.56458333 0.34821429
vt 0.56458333 0.34821429
vt 0.56458333 0.34821429
vt 0.56458333 0.34821429
vt 0.16458333 0.34821429
vt 0.16458333 0.34821429
vt 0.16458333 0.34821429
vt 0.16458333 0.34821429
vt 0.16458333 0.34821429
vt 0.16458333 0.34821429
vt 0.16458333 0.34821429
vt 0.16458333 0.34821429
vt 0.56458333 0.34821429
vt 0.56458333 0.34821429
vt 0.56458333 0.34821429
vt 0.56458333 0.34821429
vt 0.56458333 0.34821429
vt 0.56458333 0.34821429
vt 0.56458333 0.34821429
vt 0.56458333 0.34821429
vt 0.56458333 0.34821429
vt 0.56458333 0.34821429
vt 0.56458333 0.34821429
vt 0.56458333 0.34821429
vt 0.16458333 0.34821429
vt 0.16458333 0.34821429
vt 0.16458333 0.34821429
vt 0.16458333 0.34821429
vt 0.16458333 0.34821429
vt 0.16458333 0.34821429
vt 0.16458333 0.34821429
vt 0.16458333 0.34821429
vt 0.16458333 0.34821429
vt 0.16458333 0.34821429
vt 0.16458333 0.34821429
vt 0.16458333 0.34821429
vt 0.16458333 0.34821429
vt 0.16458333 0.34821429
vt 0.16458333 0.34821429
vt 0.16458333 0.34821429
vt 0.16458333 0.34821429
vt 0.16458333 0.34821429
vt 0.16458333 0.34821429
vt 0.16458333 0.34821429
vt 0.16458333 0.34821429
vt 0.16458333 0.34821429
vt 0.16458333 0.34821429
vt 0.16458333 0.34821429
vt 0.16458333 0.34821429
vt 0.16458333 0.34821429
vt 0.16458333 0.34821429
vt 0.16458333 0.34821429
vt 0.16458333 0.34821429
vt 0.16458333 0.34821429
vt 0.16458333 0.34821429
vt 0.16458333 0.34821429
vt 0.16458333 0.34821429
vt 0.16458333 0.34821429
vt 0.16458333 0.34821429
vt 0.16458333 0.34821429
vt 0.16458333 0.34821429
vt 0.16458333 0.34821429
vt 0.16458333 0.34821429
vt 0.16458333 0.34821429
vt 0.16458333 0.34821429
vt 0.16458333 0.34821429
vt 0.16458333 0.34821429
vt 0.16458333 0.34821429
vt 0.16458333 0.34821429
vt 0.16458333 0.34821429
vt 0.16458333 0.34821429
vt 0.16458333 0.34821429
vt 0.16458333 0.34821429
vt 0.16458333 0.34821429
vt 0.16458333 0.34821429
vt 0.16458333 0.34821429
vt 0.16458333 0.34821429
vt 0.16458333 0.34821429
vt 0.16458333 0.34821429
vt 0.16458333 0.34821429
vt 0.16458333 0.34821429
vt 0.16458333 0.34821429
vt 0.16458333 0.34821429
vt 0.16458333 0.34821429
vt 0.16458333 0.34821429
vt 0.16458333 0.34821429
vt 0.16458333 0.34821429
vt 0.16458333 0.34821429
vt 0.16458333 0.34821429
vt 0.16458333 0.34821429
vt 0.16458333 0.34821429
vt 0.16458333 0.34821429
vt 0.16458333 0.34821429
vt 0.16458333 0.34821429
vt 0.16458333 0.34821429
vt 0.16458333 0.34821429
vt 0.16458333 0.34821429
vt 0.16458333 0.34821429
vt 0.16458333 0.34821429
vt 0.16458333 0.34821429
vt 0.16458333 0.34821429
vt 0.16458333 0.34821429
vt 0.16458333 0.34821429
vt 0.16458333 0.34821429
vt 0.16458333 0.34821429
vt 0.16458333 0.34821429
vt 0.16458333 0.34821429
vt 0.16458333 0.34821429
vt 0.16458333 0.34821429
vt 0.16458333 0.34821429
vt 0.16458333 0.34821429
vt 0.16458333 0.34821429
vt 0.16458333 0.34821429
vt 0.16458333 0.34821429
vt 0.16458333 0.34821429
vt 0.16458333 0.34821429
vt 0.16458333 0.34821429
vt 0.16458333 0.34821429
vt 0.16458333 0.34821429
vt 0.16458333 0.34821429
vt 0.16458333 0.34821429
vt 0.16458333 0.34821429
vt 0.16458333 0.34821429
vt 0.16458333 0.34821429
vt 0.16458333 0.34821429
vt 0.16458333 0.34821429
vt 0.16458333 0.34821429
vt 0.16458333 0.34821429
vt 0.16458333 0.34821429
vt 0.16458333 0.34821429
vt 0.16458333 0.34821429
vt 0.16458333 0.34821429
vt 0.16458333 0.34821429
vt 0.16458333 0.34821429
vt 0.16458333 0.34821429
vt 0.16458333 0.34821429
vt 0.16458333 0.34821429
vt 0.16458333 0.34821429
vt 0.16458333 0.34821429
vt 0.16458333 0.34821429
vt 0.16458333 0.34821429
vt 0.16458333 0.34821429
vt 0.16458333 0.34821429
vt 0.16458333 0.34821429
vt 0.16458333 0.34821429
vt 0.16458333 0.34821429
vt 0.16458333 0.34821429
vt 0.16458333 0.34821429
vt 0.16458333 0.34821429
vt 0.16458333 0.34821429
vt 0.16458333 0.34821429
vt 0.16458333 0.34821429
vt 0.16458333 0.34821429
vt 0.16458333 0.34821429
vt 0.16458333 0.34821429
vt 0.16458333 0.34821429
vt 0.16458333 0.34821429
vt 0.16458333 0.34821429
vt 0.16458333 0.34821429
vt 0.16458333 0.34821429
vt 0.16458333 0.34821429
vt 0.16458333 0.34821429
vt 0.16458333 0.34821429
vt 0.16458333 0.34821429
vt 0.16458333 0.34821429
vt 0.16458333 0.34821429
vt 0.16458333 0.34821429
vt 0.16458333 0.34821429
vt 0.56458333 0.34821429
vt 0.56458333 0.34821429
vt 0.56458333 0.34821429
vt 0.56458333 0.34821429
vt 0.56458333 0.34821429
vt 0.56458333 0.34821429
vt 0.56458333 0.34821429
vt 0.56458333 0.34821429
vt 0.56458333 0.34821429
vt 0.56458333 0.34821429
vt 0.56458333 0.34821429
vt 0.56458333 0.34821429
vt 0.16458333 0.34821429
vt 0.16458333 0.34821429
vt 0.16458333 0.34821429
vt 0.16458333 0.34821429
vt 0.16458333 0.34821429
vt 0.56458333 0.34821429
vt 0.56458333 0.34821429
vt 0.56458333 0.34821429
vt 0.56458333 0.34821429
vt 0.56458333 0.34821429
vt 0.56458333 0.34821429
vt 0.56458333 0.34821429
vt 0.56458333 0.34821429
vt 0.16458333 0.34821429
vt 0.16458333 0.34821429
vt 0.16458333 0.34821429
vt 0.16458333 0.34821429
vt 0.16458333 0.34821429
vt 0.16458333 0.34821429
vt 0.16458333 0.34821429
vt 0.16458333 0.34821429
vt 0.16458333 0.34821429
vt 0.16458333 0.34821429
vt 0.16458333 0.34821429
vt 0.16458333 0.34821429
vt 0.16458333 0.34821429
vt 0.16458333 0.34821429
vt 0.16458333 0.34821429
vt 0.16458333 0.34821429
vt 0.16458333 0.34821429
vt 0.16458333 0.34821429
vt 0.16458333 0.34821429
vt 0.16458333 0.34821429
vt 0.16458333 0.34821429
vt 0.16458333 0.34821429
vt 0.16458333 0.34821429
vt 0.16458333 0.34821429
vt 0.16458333 0.34821429
vt 0.16458333 0.34821429
vt 0.16458333 0.34821429
vt 0.16458333 0.34821429
vt 0.16458333 0.34821429
vt 0.16458333 0.34821429
vt 0.16458333 0.34821429
vt 0.16458333 0.34821429
vt 0.16458333 0.34821429
vt 0.16458333 0.34821429
vt 0.16458333 0.34821429
vt 0.16458333 0.34821429
vt 0.16458333 0.34821429
vt 0.16458333 0.34821429
vt 0.16458333 0.34821429
vt 0.16458333 0.34821429
vt 0.16458333 0.34821429
vt 0.16458333 0.34821429
vt 0.16458333 0.34821429
vt 0.16458333 0.34821429
vt 0.16458333 0.34821429
vt 0.16458333 0.34821429
vt 0.16458333 0.34821429
vt 0.16458333 0.34821429
vt 0.16458333 0.34821429
vt 0.16458333 0.34821429
vt 0.16458333 0.34821429
vt 0.16458333 0.34821429
vt 0.16458333 0.34821429
vt 0.16458333 0.34821429
vt 0.16458333 0.34821429
vt 0.16458333 0.34821429
vt 0.16458333 0.34821429
vt 0.16458333 0.34821429
vt 0.16458333 0.34821429
vt 0.16458333 0.34821429
vt 0.16458333 0.34821429
vt 0.16458333 0.34821429
vt 0.16458333 0.34821429
vt 0.16458333 0.34821429
vt 0.16458333 0.34821429
vt 0.16458333 0.34821429
vt 0.16458333 0.34821429
vt 0.16458333 0.34821429
vt 0.16458333 0.34821429
vt 0.16458333 0.34821429
vt 0.16458333 0.34821429
vt 0.16458333 0.34821429
vt 0.16458333 0.34821429
vt 0.16458333 0.34821429
vt 0.16458333 0.34821429
vt 0.16458333 0.34821429
vt 0.16458333 0.34821429
vt 0.16458333 0.34821429
vt 0.16458333 0.34821429
vt 0.16458333 0.34821429
vt 0.16458333 0.34821429
vt 0.16458333 0.34821429
vt 0.16458333 0.34821429
vt 0.16458333 0.34821429
vt 0.16458333 0.34821429
vt 0.16458333 0.34821429
vt 0.16458333 0.34821429
vt 0.16458333 0.34821429
vt 0.16458333 0.34821429
vt 0.16458333 0.34821429
vt 0.16458333 0.34821429
vt 0.16458333 0.34821429
vt 0.16458333 0.34821429
vt 0.16458333 0.34821429
vt 0.16458333 0.34821429
vt 0.16458333 0.34821429
vt 0.16458333 0.34821429
vt 0.16458333 0.34821429
vt 0.16458333 0.34821429
vt 0.16458333 0.34821429
vt 0.16458333 0.34821429
vt 0.16458333 0.34821429
vt 0.56458333 0.34821429
vt 0.56458333 0.34821429
vt 0.56458333 0.34821429
vt 0.56458333 0.34821429
vt 0.56458333 0.34821429
vt 0.56458333 0.34821429
vt 0.56458333 0.34821429
vt 0.56458333 0.34821429
vt 0.16458333 0.34821429
vt 0.16458333 0.34821429
vt 0.16458333 0.34821429
vt 0.16458333 0.34821429
vt 0.16458333 0.34821429
vt 0.16458333 0.34821429
vt 0.16458333 0.34821429
vt 0.16458333 0.34821429
vt 0.16458333 0.34821429
vt 0.16458333 0.34821429
vt 0.16458333 0.34821429
vt 0.16458333 0.34821429
vt 0.16458333 0.34821429
vt 0.16458333 0.34821429
vt 0.16458333 0.34821429
vt 0.16458333 0.34821429
vt 0.16458333 0.34821429
vt 0.16458333 0.34821429
vt 0.16458333 0.34821429
vt 0.16458333 0.34821429
vt 0.16458333 0.34821429
vt 0.16458333 0.34821429
vt 0.16458333 0.34821429
vt 0.16458333 0.34821429
vt 0.16458333 0.34821429
vt 0.16458333 0.34821429
vt 0.16458333 0.34821429
vt 0.16458333 0.34821429
vt 0.16458333 0.34821429
vt 0.16458333 0.34821429
vt 0.16458333 0.34821429
vt 0.16458333 0.34821429
vt 0.16458333 0.34821429
vt 0.16458333 0.34821429
vt 0.16458333 0.34821429
vt 0.16458333 0.34821429
vt 0.16458333 0.34821429
vt 0.16458333 0.34821429
vt 0.16458333 0.34821429
vt 0.16458333 0.34821429
vt 0.16458333 0.34821429
vt 0.16458333 0.34821429
vt 0.16458333 0.34821429
vt 0.16458333 0.34821429
vt 0.16458333 0.34821429
vt 0.16458333 0.34821429
vt 0.16458333 0.34821429
vt 0.56458333 0.34821429
vt 0.56458333 0.34821429
vt 0.56458333 0.34821429
vt 0.56458333 0.34821429
vt 0.56458333 0.34821429
vt 0.56458333 0.34821429
vt 0.56458333 0.34821429
vt 0.56458333 0.34821429
vt 0.56458333 0.34821429
vt 0.56458333 0.34821429
vt 0.16458333 0.34821429
vt 0.16458333 0.34821429
vt 0.16458333 0.34821429
vt 0.16458333 0.34821429
vt 0.16458333 0.34821429
vt 0.16458333 0.34821429
vt 0.16458333 0.34821429
vt 0.16458333 0.34821429
vt 0.16458333 0.34821429
vt 0.16458333 0.34821429
vt 0.16458333 0.34821429
vt 0.16458333 0.34821429
vt 0.16458333 0.34821429
vt 0.16458333 0.34821429
vt 0.16458333 0.34821429
vt 0.16458333 0.34821429
vt 0.16458333 0.34821429
vt 0.16458333 0.34821429
vt 0.16458333 0.34821429
vt 0.16458333 0.34821429
vt 0.16458333 0.34821429
vt 0.16458333 0.34821429
vt 0.16458333 0.34821429
vt 0.16458333 0.34821429
vt 0.16458333 0.34821429
vt 0.16458333 0.34821429
vt 0.16458333 0.34821429
vt 0.16458333 0.34821429
vt 0.16458333 0.34821429
vt 0.16458333 0.34821429
vt 0.16458333 0.34821429
vt 0.16458333 0.34821429
vt 0.16458333 0.34821429
vt 0.16458333 0.34821429
vt 0.16458333 0.34821429
vt 0.16458333 0.34821429
vt 0.16458333 0.34821429
vt 0.16458333 0.34821429
vt 0.16458333 0.34821429
vt 0.16458333 0.34821429
vt 0.16458333 0.34821429
vt 0.16458333 0.34821429
vt 0.16458333 0.34821429
vt 0.16458333 0.34821429
vt 0.16458333 0.34821429
vt 0.16458333 0.34821429
vt 0.16458333 0.34821429
vt 0.16458333 0.34821429
vt 0.16458333 0.34821429
vt 0.16458333 0.34821429
vt 0.16458333 0.34821429
vt 0.16458333 0.34821429
vt 0.16458333 0.34821429
vt 0.16458333 0.34821429
vt 0.16458333 0.34821429
vt 0.16458333 0.34821429
vt 0.16458333 0.34821429
vt 0.16458333 0.34821429
vt 0.16458333 0.34821429
vt 0.16458333 0.34821429
vt 0.16458333 0.34821429
vt 0.16458333 0.34821429
vt 0.16458333 0.34821429
vt 0.16458333 0.34821429
vt 0.16458333 0.34821429
vt 0.16458333 0.34821429
vt 0.16458333 0.34821429
vt 0.16458333 0.34821429
vt 0.16458333 0.34821429
vt 0.16458333 0.34821429
vt 0.16458333 0.34821429
vt 0.16458333 0.34821429
vt 0.16458333 0.34821429
vt 0.56458333 0.34821429
vt 0.56458333 0.34821429
vt 0.56458333 0.34821429
vt 0.56458333 0.34821429
vt 0.56458333 0.34821429
vt 0.56458333 0.34821429
vt 0.56458333 0.34821429
vt 0.56458333 0.34821429
vt 0.16458333 0.34821429
vt 0.16458333 0.34821429
vt 0.16458333 0.34821429
vt 0.16458333 0.34821429
vt 0.16458333 0.34821429
vt 0.16458333 0.34821429
vt 0.16458333 0.34821429
vt 0.16458333 0.34821429
vt 0.16458333 0.34821429
vt 0.16458333 0.34821429
vt 0.16458333 0.34821429
vt 0.16458333 0.34821429
vt 0.16458333 0.34821429
f 1/1/1 2/2/2 3/3/3
f 2/2/2 1/1/1 4/4/4
f 5/5/5 6/6/6 7/7/7
f 8/8/8 7/7/7 6/6/6
f 9/9/9 10/10/10 11/11/11
f 10/10/10 9/9/9 12/12/12
f 13/13/13 14/14/14 15/15/15
f 16/16/16 15/15/15 14/14/14
f 17/17/17 18/18/18 19/19/19
f 18/18/18 17/17/17 20/20/20
f 21/21/21 22/22/22 23/23/23
f 24/24/24 23/23/23 22/22/22
f 25/25/25 26/26/26 27/27/27
f 26/26/26 25/25/25 28/28/28
f 29/29/29 30/30/30 31/31/31
f 32/32/32 31/31/31 30/30/30
f 33/33/33 34/34/34 35/35/35
f 34/34/34 33/33/33 36/36/36
f 37/37/37 38/38/38 39/39/39
f 40/40/40 39/39/39 38/38/38
f 41/41/41 42/42/42 43/43/43
f 42/42/42 41/41/41 44/44/44
f 42/42/42 44/44/44 45/45/45
f 45/45/45 44/44/44 46/46/46
f 47/47/47 48/48/48 49/49/49
f 49/49/49 48/48/48 50/50/50
f 48/48/48 51/51/51 50/50/50
f 52/52/52 50/50/50 51/51/51
f 53/53/53 54/54/54 55/55/55
f 54/54/54 53/53/53 56/56/56
f 55/55/55 57/57/57 58/58/58
f 57/57/57 55/55/55 54/54/54
f 59/59/59 60/60/60 61/61/61
f 62/62/62 61/61/61 60/60/60
f 63/63/63 64/64/64 59/59/59
f 60/60/60 59/59/59 64/64/64
f 65/65/65 66/66/66 67/67/67
f 66/66/66 65/65/65 68/68/68
f 69/69/69 70/70/70 71/71/71
f 72/72/72 71/71/71 70/70/70
f 73/73/73 74/74/74 75/75/75
f 74/74/74 73/73/73 76/76/76
f 77/77/77 78/78/78 79/79/79
f 80/80/80 79/79/79 78/78/78
f 81/81/81 82/82/82 83/83/83
f 82/82/82 81/81/81 84/84/84
f 82/82/82 84/84/84 85/85/85
f 85/85/85 84/84/84 86/86/86
f 87/87/87 88/88/88 89/89/89
f 89/89/89 88/88/88 90/90/90
f 88/88/88 91/91/91 90/90/90
f 92/92/92 90/90/90 91/91/91
f 93/93/93 94/94/94 95/95/95
f 94/94/94 93/93/93 96/96/96
f 97/97/97 98/98/98 99/99/99
f 100/100/100 99/99/99 98/98/98
f 101/101/101 102/102/102 103/103/103
f 102/102/102 101/101/101 104/104/104
f 104/104/104 101/101/101 105/105/105
f 104/104/104 105/105/105 106/106/106
f 107/107/107 108/108/108 109/109/109
f 108/108/108 110/110/110 109/109/109
f 109/109/109 110/110/110 111/111/111
f 112/112/112 111/111/111 110/110/110
f 113/113/113 114/114/114 115/115/115
f 114/114/114 113/113/113 116/116/116
f 116/116/116 113/113/113 117/117/117
f 117/117/117 113/113/113 118/118/118
f 119/119/119 120/120/120 121/121/121
f 121/121/121 120/120/120 122/122/122
f 122/122/122 120/120/120 123/123/123
f 124/124/124 123/123/123 120/120/120
f 125/125/125 126/126/126 127/127/127
f 126/126/126 125/125/125 128/128/128
f 129/129/129 130/130/130 131/131/131
f 132/132/132 131/131/131 130/130/130
f 133/133/133 134/134/134 135/135/135
f 134/134/134 133/133/133 136/136/136
f 137/137/137 138/138/138 139/139/139
f 140/140/140 139/139/139 138/138/138
f 141/141/141 142/142/142 143/143/143
f 142/142/142 141/141/141 144/144/144
f 145/145/145 146/146/146 147/147/147
f 148/148/148 147/147/147 146/146/146
f 149/149/149 150/150/150 151/151/151
f 150/150/150 149/149/149 152/152/152
f 153/153/153 154/154/154 155/155/155
f 156/156/156 155/155/155 154/154/154
f 157/157/157 158/158/158 159/159/159
f 158/158/158 157/157/157 160/160/160
f 161/161/161 162/162/162 163/163/163
f 164/164/164 163/163/163 162/162/162
f 165/165/165 166/166/166 167/167/167
f 166/166/166 165/165/165 168/168/168
f 169/169/169 170/170/170 171/171/171
f 172/172/172 171/171/171 170/170/170
f 173/173/173 174/174/174 175/175/175
f 174/174/174 176/176/176 177/177/177
f 176/176/176 174/174/174 178/178/178
f 178/178/178 174/174/174 173/173/173
f 179/179/179 180/180/180 181/181/181
f 181/181/181 180/180/180 182/182/182
f 183/183/183 182/182/182 180/180/180
f 184/184/184 180/180/180 179/179/179
f 185/185/185 186/186/186 187/187/187
f 186/186/186 185/185/185 188/188/188
f 189/189/189 190/190/190 191/191/191
f 192/192/192 191/191/191 190/190/190
f 193/193/193 194/194/194 195/195/195
f 196/196/196 195/195/195 194/194/194
f 195/195/195 196/196/196 197/197/197
f 195/195/195 197/197/197 198/198/198
f 199/199/199 200/200/200 201/201/201
f 200/200/200 202/202/202 201/201/201
f 203/203/203 201/201/201 202/202/202
f 201/201/201 203/203/203 204/204/204
f 205/205/205 206/206/206 207/207/207
f 206/206/206 205/205/205 208/208/208
f 209/209/209 210/210/210 211/211/211
f 212/212/212 211/211/211 210/210/210
f 207/207/207 213/213/213 214/214/214
f 213/213/213 207/207/207 206/206/206
f 211/211/211 212/212/212 215/215/215
f 216/216/216 215/215/215 212/212/212
f 217/217/217 218/218/218 219/219/219
f 218/218/218 217/217/217 220/220/220
f 221/221/221 222/222/222 223/223/223
f 224/224/224 223/223/223 222/222/222
f 225/225/225 226/226/226 227/227/227
f 226/226/226 225/225/225 228/228/228
f 229/229/229 230/230/230 231/231/231
f 232/232/232 231/231/231 230/230/230
f 233/233/233 234/234/234 235/235/235
f 234/234/234 233/233/233 236/236/236
f 236/236/236 233/233/233 237/237/237
f 234/234/234 236/236/236 238/238/238
f 239/239/239 240/240/240 241/241/241
f 242/242/242 243/243/243 240/240/240
f 240/240/240 243/243/243 241/241/241
f 244/244/244 241/241/241 243/243/243
f 245/245/245 246/246/246 247/247/247
f 246/246/246 245/245/245 248/248/248
f 249/249/249 250/250/250 251/251/251
f 252/252/252 251/251/251 250/250/250
f 253/253/253 254/254/254 255/255/255
f 254/254/254 253/253/253 256/256/256
f 257/257/257 258/258/258 259/259/259
f 260/260/260 259/259/259 258/258/258
f 261/261/261 262/262/262 263/263/263
f 264/264/264 262/262/262 265/265/265
f 262/262/262 264/264/264 263/263/263
f 263/263/263 264/264/264 266/266/266
f 267/267/267 268/268/268 269/269/269
f 269/269/269 268/268/268 270/270/270
f 271/271/271 270/270/270 268/268/268
f 269/269/269 270/270/270 272/272/272
f 273/273/273 274/274/274 275/275/275
f 274/274/274 273/273/273 276/276/276
f 277/277/277 278/278/278 279/279/279
f 280/280/280 279/279/279 278/278/278
f 281/281/281 282/282/282 283/283/283
f 282/282/282 281/281/281 284/284/284
f 282/282/282 285/285/285 286/286/286
f 285/285/285 282/282/282 284/284/284
f 287/287/287 288/288/288 289/289/289
f 290/290/290 289/289/289 288/288/288
f 287/287/287 291/291/291 288/288/288
f 292/292/292 288/288/288 291/291/291
f 293/293/293 294/294/294 295/295/295
f 294/294/294 293/293/293 296/296/296
f 296/296/296 297/297/297 298/298/298
f 297/297/297 296/296/296 293/293/293
f 299/299/299 300/300/300 301/301/301
f 302/302/302 301/301/301 300/300/300
f 300/300/300 299/299/299 303/303/303
f 304/304/304 303/303/303 299/299/299
f 305/305/305 306/306/306 307/307/307
f 306/306/306 305/305/305 308/308/308
f 309/309/309 310/310/310 311/311/311
f 312/312/312 311/311/311 310/310/310
f 313/313/313 314/314/314 315/315/315
f 314/314/314 313/313/313 316/316/316
f 317/317/317 318/318/318 319/319/319
f 320/320/320 319/319/319 318/318/318
f 321/321/321 322/322/322 323/323/323
f 322/322/322 321/321/321 324/324/324
f 325/325/325 326/326/326 327/327/327
f 328/328/328 327/327/327 326/326/326
f 329/329/329 330/330/330 331/331/331
f 330/330/330 329/329/329 332/332/332
f 333/333/333 334/334/334 335/335/335
f 336/336/336 335/335/335 334/334/334
f 331/331/331 337/337/337 338/338/338
f 337/337/337 331/331/331 330/330/330
f 335/335/335 336/336/336 339/339/339
f 340/340/340 339/339/339 336/336/336
f 341/341/341 342/342/342 343/343/343
f 342/342/342 341/341/341 344/344/344
f 345/345/345 346/346/346 347/347/347
f 348/348/348 347/347/347 346/346/346
f 349/349/349 350/350/350 351/351/351
f 350/350/350 349/349/349 352/352/352
f 352/352/352 349/349/349 353/353/353
f 353/353/353 349/349/349 354/354/354
f 355/355/355 356/356/356 357/357/357
f 357/357/357 356/356/356 358/358/358
f 358/358/358 356/356/356 359/359/359
f 360/360/360 359/359/359 356/356/356
f 361/361/361 362/362/362 363/363/363
f 362/362/362 361/361/361 364/364/364
f 364/364/364 361/361/361 365/365/365
f 366/366/366 367/367/367 368/368/368
f 367/367/367 366/366/366 369/369/369
f 370/370/370 371/371/371 372/372/372
f 373/373/373 372/372/372 371/371/371
f 374/374/374 375/375/375 376/376/376
f 375/375/375 374/374/374 377/377/377
f 378/378/378 379/379/379 380/380/380
f 381/381/381 380/380/380 379/379/379
f 382/382/382 383/383/383 384/384/384
f 383/383/383 382/382/382 385/385/385
f 386/386/386 387/387/387 388/388/388
f 389/389/389 388/388/388 387/387/387
f 390/390/390 391/391/391 392/392/392
f 391/391/391 390/390/390 393/393/393
f 394/394/394 395/395/395 396/396/396
f 397/397/397 396/396/396 395/395/395
f 398/398/398 399/399/399 400/400/400
f 399/399/399 398/398/398 401/401/401
f 402/402/402 403/403/403 404/404/404
f 405/405/405 404/404/404 403/403/403
f 406/406/406 407/407/407 408/408/408
f 407/407/407 406/406/406 409/409/409
f 410/410/410 411/411/411 412/412/412
f 413/413/413 412/412/412 411/411/411
f 414/414/414 415/415/415 416/416/416
f 415/415/415 414/414/414 417/417/417
f 418/418/418 419/419/419 420/420/420
f 421/421/421 420/420/420 419/419/419
f 422/422/422 423/423/423 424/424/424
f 423/423/423 422/422/422 425/425/425
f 426/426/426 423/423/423 425/425/425
f 427/427/427 428/428/428 429/429/429
f 428/428/428 427/427/427 430/430/430
f 431/431/431 432/432/432 433/433/433
f 434/434/434 433/433/433 432/432/432
f 435/435/435 436/436/436 437/437/437
f 436/436/436 435/435/435 438/438/438
f 439/439/439 440/440/440 441/441/441
f 442/442/442 441/441/441 440/440/440
f 443/443/443 444/444/444 445/445/445
f 444/444/444 443/443/443 446/446/446
f 447/447/447 448/448/448 449/449/449
f 450/450/450 449/449/449 448/448/448
f 451/451/451 452/452/452 453/453/453
f 452/452/452 451/451/451 454/454/454
f 454/454/454 451/451/451 455/455/455
f 456/456/456 457/457/457 458/458/458
f 457/457/457 456/456/456 459/459/459
f 460/460/460 461/461/461 462/462/462
f 463/463/463 462/462/462 461/461/461
f 464/464/464 465/465/465 466/466/466
f 465/465/465 464/464/464 467/467/467
f 468/468/468 469/469/469 470/470/470
f 471/471/471 470/470/470 469/469/469
f 472/472/472 467/467/467 464/464/464
f 467/467/467 472/472/472 473/473/473
f 474/474/474 475/475/475 468/468/468
f 469/469/469 468/468/468 475/475/475
f 476/476/476 477/477/477 478/478/478
f 477/477/477 476/476/476 479/479/479
f 480/480/480 481/481/481 482/482/482
f 483/483/483 482/482/482 481/481/481
f 484/484/484 485/485/485 486/486/486
f 485/485/485 484/484/484 487/487/487
f 487/487/487 484/484/484 488/488/488
f 489/489/489 490/490/490 491/491/491
f 490/490/490 489/489/489 492/492/492
f 493/493/493 494/494/494 495/495/495
f 496/496/496 495/495/495 494/494/494
f 497/497/497 498/498/498 499/499/499
f 498/498/498 497/497/497 500/500/500
f 501/501/501 502/502/502 503/503/503
f 504/504/504 503/503/503 502/502/502
f 505/505/505 506/506/506 507/507/507
f 506/506/506 505/505/505 508/508/508
f 509/509/509 510/510/510 511/511/511
f 512/512/512 511/511/511 510/510/510
f 513/513/513 514/514/514 515/515/515
f 514/514/514 513/513/513 516/516/516
f 516/516/516 513/513/513 517/517/517
f 518/518/518 519/519/519 520/520/520
f 519/519/519 518/518/518 521/521/521
f 519/519/519 521/521/521 522/522/522
f 523/523/523 524/524/524 525/525/525
f 524/524/524 523/523/523 526/526/526
f 527/527/527 528/528/528 529/529/529
f 530/530/530 529/529/529 528/528/528
f 531/531/531 532/532/532 533/533/533
f 532/532/532 531/531/531 534/534/534
f 534/534/534 531/531/531 535/535/535
f 536/536/536 537/537/537 538/538/538
f 538/538/538 537/537/537 539/539/539
f 540/540/540 539/539/539 537/537/537
f 541/541/541 542/542/542 543/543/543
f 542/542/542 541/541/541 544/544/544
f 544/544/544 541/541/541 545/545/545
f 546/546/546 547/547/547 548/548/548
f 548/548/548 547/547/547 549/549/549
f 550/550/550 549/549/549 547/547/547
f 551/551/551 552/552/552 553/553/553
f 552/552/552 551/551/551 554/554/554
f 554/554/554 551/551/551 555/555/555
f 556/556/556 557/557/557 558/558/558
f 558/558/558 557/557/557 559/559/559
f 560/560/560 559/559/559 557/557/557
f 561/561/561 562/562/562 563/563/563
f 562/562/562 561/561/561 564/564/564
f 565/565/565 566/566/566 567/567/567
f 568/568/568 567/567/567 566/566/566
f 569/569/569 570/570/570 571/571/571
f 570/570/570 569/569/569 572/572/572
f 573/573/573 574/574/574 575/575/575
f 576/576/576 575/575/575 574/574/574
f 577/577/577 578/578/578 579/579/579
f 578/578/578 577/577/577 580/580/580
f 581/581/581 582/582/582 583/583/583
f 584/584/584 583/583/583 582/582/582
f 585/585/585 586/586/586 587/587/587
f 586/586/586 585/585/585 588/588/588
f 589/589/589 590/590/590 591/591/591
f 592/592/592 591/591/591 590/590/590
f 593/593/593 594/594/594 595/595/595
f 594/594/594 593/593/593 596/596/596
f 594/594/594 596/596/596 597/597/597
f 598/598/598 599/599/599 600/600/600
f 599/599/599 598/598/598 601/601/601
f 602/602/602 603/603/603 604/604/604
f 605/605/605 604/604/604 603/603/603
f 606/606/606 607/607/607 608/608/608
f 607/607/607 606/606/606 609/609/609
f 610/610/610 611/611/611 612/612/612
f 613/613/613 612/612/612 611/611/611
f 614/614/614 615/615/615 616/616/616
f 615/615/615 614/614/614 617/617/617
f 618/618/618 619/619/619 620/620/620
f 621/621/621 620/620/620 619/619/619
f 622/622/622 623/623/623 624/624/624
f 623/623/623 622/622/622 625/625/625
f 625/625/625 622/622/622 626/626/626
f 627/627/627 628/628/628 629/629/629
f 628/628/628 627/627/627 630/630/630
f 631/631/631 632/632/632 633/633/633
f 634/634/634 633/633/633 632/632/632

