# Blender 4.3.2
# www.blender.org
mtllib untitled.mtl
o ID4
v 0.690000 0.530000 0.040000
v 0.690000 0.460000 -0.000000
v 0.690000 0.460000 0.040000
v 0.690000 0.530000 -0.000000
v 0.690000 0.530000 -0.000000
v 0.690000 0.530000 0.040000
v 0.690000 0.460000 -0.000000
v 0.690000 0.460000 0.040000
v 0.690000 0.530000 -0.000000
v 0.690000 0.460000 -0.040000
v 0.690000 0.460000 -0.000000
v 0.690000 0.530000 -0.040000
v 0.690000 0.530000 -0.040000
v 0.690000 0.530000 -0.000000
v 0.690000 0.460000 -0.040000
v 0.690000 0.460000 -0.000000
v 0.620000 0.530000 0.040000
v 0.690000 0.530000 -0.000000
v 0.690000 0.530000 0.040000
v 0.620000 0.530000 -0.000000
v 0.620000 0.530000 -0.000000
v 0.620000 0.530000 0.040000
v 0.690000 0.530000 -0.000000
v 0.690000 0.530000 0.040000
v 0.620000 0.530000 -0.000000
v 0.690000 0.530000 -0.040000
v 0.690000 0.530000 -0.000000
v 0.620000 0.530000 -0.040000
v 0.620000 0.530000 -0.040000
v 0.620000 0.530000 -0.000000
v 0.690000 0.530000 -0.040000
v 0.690000 0.530000 -0.000000
vn -1.0000 -0.0000 -0.0000
vn 1.0000 -0.0000 -0.0000
vn -0.0000 -1.0000 -0.0000
vn -0.0000 1.0000 -0.0000
s 0
usemtl FP_DOORFRAME
f 1//1 2//1 3//1
f 2//1 1//1 4//1
f 5//2 6//2 7//2
f 8//2 7//2 6//2
f 9//1 10//1 11//1
f 10//1 9//1 12//1
f 13//2 14//2 15//2
f 16//2 15//2 14//2
f 17//3 18//3 19//3
f 18//3 17//3 20//3
f 21//4 22//4 23//4
f 24//4 23//4 22//4
f 25//3 26//3 27//3
f 26//3 25//3 28//3
f 29//4 30//4 31//4
f 32//4 31//4 30//4
o ID12
v 0.620000 0.490000 -0.000000
v 0.690000 0.530000 -0.000000
v 0.620000 0.530000 -0.000000
v 0.650000 0.490000 -0.000000
v 0.690000 0.460000 -0.000000
v 0.650000 0.460000 -0.000000
v 0.650000 0.460000 -0.000000
v 0.650000 0.490000 -0.000000
v 0.690000 0.460000 -0.000000
v 0.690000 0.530000 -0.000000
v 0.620000 0.490000 -0.000000
v 0.620000 0.530000 -0.000000
vn -0.0000 -0.0000 1.0000
vn -0.0000 -0.0000 -1.0000
s 0
usemtl FP_DOORFRAME
f 33//5 34//5 35//5
f 34//5 33//5 36//5
f 34//5 36//5 37//5
f 37//5 36//5 38//5
f 39//6 40//6 41//6
f 41//6 40//6 42//6
f 40//6 43//6 42//6
f 44//6 42//6 43//6
o ID20
v 0.620000 0.590000 -0.040000
v 0.750000 0.590000 0.040000
v 0.750000 0.590000 -0.040000
v 0.620000 0.590000 0.040000
v 0.620000 0.590000 0.040000
v 0.620000 0.590000 -0.040000
v 0.750000 0.590000 0.040000
v 0.750000 0.590000 -0.040000
v 0.750000 0.460000 -0.040000
v 0.690000 0.530000 -0.040000
v 0.750000 0.590000 -0.040000
v 0.690000 0.460000 -0.040000
v 0.620000 0.530000 -0.040000
v 0.620000 0.590000 -0.040000
v 0.690000 0.530000 -0.040000
v 0.750000 0.590000 -0.040000
v 0.620000 0.530000 -0.040000
v 0.620000 0.590000 -0.040000
v 0.690000 0.460000 -0.040000
v 0.750000 0.460000 -0.040000
v 0.620000 0.530000 0.040000
v 0.750000 0.590000 0.040000
v 0.620000 0.590000 0.040000
v 0.690000 0.530000 0.040000
v 0.750000 0.460000 0.040000
v 0.690000 0.460000 0.040000
v 0.690000 0.460000 0.040000
v 0.690000 0.530000 0.040000
v 0.750000 0.460000 0.040000
v 0.750000 0.590000 0.040000
v 0.620000 0.530000 0.040000
v 0.620000 0.590000 0.040000
v 0.750000 0.460000 -0.040000
v 0.750000 0.590000 0.040000
v 0.750000 0.460000 0.040000
v 0.750000 0.590000 -0.040000
v 0.750000 0.590000 -0.040000
v 0.750000 0.460000 -0.040000
v 0.750000 0.590000 0.040000
v 0.750000 0.460000 0.040000
vn -0.0000 1.0000 -0.0000
vn -0.0000 -1.0000 -0.0000
vn -0.0000 -0.0000 -1.0000
vn -0.0000 -0.0000 1.0000
vn 1.0000 -0.0000 -0.0000
vn -1.0000 -0.0000 -0.0000
s 0
usemtl FP_DOORFRAME
f 45//7 46//7 47//7
f 46//7 45//7 48//7
f 49//8 50//8 51//8
f 52//8 51//8 50//8
f 53//9 54//9 55//9
f 54//9 53//9 56//9
f 55//9 57//9 58//9
f 57//9 55//9 54//9
f 59//10 60//10 61//10
f 62//10 61//10 60//10
f 63//10 64//10 59//10
f 60//10 59//10 64//10
f 65//10 66//10 67//10
f 66//10 65//10 68//10
f 66//10 68//10 69//10
f 69//10 68//10 70//10
f 71//9 72//9 73//9
f 73//9 72//9 74//9
f 72//9 75//9 74//9
f 76//9 74//9 75//9
f 77//11 78//11 79//11
f 78//11 77//11 80//11
f 81//12 82//12 83//12
f 84//12 83//12 82//12
o ID26
v 0.620000 0.470000 -0.000000
v 0.650000 0.490000 -0.000000
v 0.620000 0.490000 -0.000000
v 0.630000 0.470000 -0.000000
v 0.650000 0.460000 -0.000000
v 0.630000 0.460000 -0.000000
v 0.630000 0.460000 -0.000000
v 0.630000 0.470000 -0.000000
v 0.650000 0.460000 -0.000000
v 0.650000 0.490000 -0.000000
v 0.620000 0.470000 -0.000000
v 0.620000 0.490000 -0.000000
vn -0.0000 -0.0000 1.0000
vn -0.0000 -0.0000 -1.0000
s 0
usemtl FP_GLASSBORDER
f 85//13 86//13 87//13
f 86//13 85//13 88//13
f 86//13 88//13 89//13
f 89//13 88//13 90//13
f 91//14 92//14 93//14
f 93//14 92//14 94//14
f 92//14 95//14 94//14
f 96//14 94//14 95//14
o ID34
v 0.620000 0.460000 -0.000000
v 0.630000 0.470000 -0.000000
v 0.620000 0.470000 -0.000000
v 0.630000 0.460000 -0.000000
v 0.630000 0.460000 -0.000000
v 0.620000 0.460000 -0.000000
v 0.630000 0.470000 -0.000000
v 0.620000 0.470000 -0.000000
vn -0.0000 -0.0000 1.0000
vn -0.0000 -0.0000 -1.0000
s 0
usemtl FP_GLASS
f 97//15 98//15 99//15
f 98//15 97//15 100//15
f 101//16 102//16 103//16
f 104//16 103//16 102//16
o ID44
v 0.750000 -0.590000 -0.040000
v 0.690000 -0.460000 -0.040000
v 0.750000 -0.460000 -0.040000
v 0.690000 -0.530000 -0.040000
v 0.620000 -0.530000 -0.040000
v 0.620000 -0.590000 -0.040000
v 0.620000 -0.590000 -0.040000
v 0.750000 -0.590000 -0.040000
v 0.620000 -0.530000 -0.040000
v 0.690000 -0.530000 -0.040000
v 0.690000 -0.460000 -0.040000
v 0.750000 -0.460000 -0.040000
v 0.620000 -0.590000 0.040000
v 0.750000 -0.590000 -0.040000
v 0.750000 -0.590000 0.040000
v 0.620000 -0.590000 -0.040000
v 0.620000 -0.590000 -0.040000
v 0.620000 -0.590000 0.040000
v 0.750000 -0.590000 -0.040000
v 0.750000 -0.590000 0.040000
v 0.750000 -0.590000 -0.040000
v 0.750000 -0.460000 0.040000
v 0.750000 -0.590000 0.040000
v 0.750000 -0.460000 -0.040000
v 0.750000 -0.460000 -0.040000
v 0.750000 -0.590000 -0.040000
v 0.750000 -0.460000 0.040000
v 0.750000 -0.590000 0.040000
v 0.690000 -0.530000 0.040000
v 0.750000 -0.460000 0.040000
v 0.690000 -0.460000 0.040000
v 0.750000 -0.590000 0.040000
v 0.620000 -0.530000 0.040000
v 0.620000 -0.590000 0.040000
v 0.620000 -0.590000 0.040000
v 0.620000 -0.530000 0.040000
v 0.750000 -0.590000 0.040000
v 0.690000 -0.530000 0.040000
v 0.750000 -0.460000 0.040000
v 0.690000 -0.460000 0.040000
vn -0.0000 -0.0000 -1.0000
vn -0.0000 -0.0000 1.0000
vn -0.0000 -1.0000 -0.0000
vn -0.0000 1.0000 -0.0000
vn 1.0000 -0.0000 -0.0000
vn -1.0000 -0.0000 -0.0000
s 0
usemtl FP_DOORFRAME
f 105//17 106//17 107//17
f 106//17 105//17 108//17
f 108//17 105//17 109//17
f 109//17 105//17 110//17
f 111//18 112//18 113//18
f 113//18 112//18 114//18
f 114//18 112//18 115//18
f 116//18 115//18 112//18
f 117//19 118//19 119//19
f 118//19 117//19 120//19
f 121//20 122//20 123//20
f 124//20 123//20 122//20
f 125//21 126//21 127//21
f 126//21 125//21 128//21
f 129//22 130//22 131//22
f 132//22 131//22 130//22
f 133//18 134//18 135//18
f 134//18 133//18 136//18
f 136//18 133//18 137//18
f 136//18 137//18 138//18
f 139//17 140//17 141//17
f 140//17 142//17 141//17
f 141//17 142//17 143//17
f 144//17 143//17 142//17
o ID50
v 0.620000 -0.530000 -0.000000
v 0.690000 -0.530000 0.040000
v 0.690000 -0.530000 -0.000000
v 0.620000 -0.530000 0.040000
v 0.620000 -0.530000 0.040000
v 0.620000 -0.530000 -0.000000
v 0.690000 -0.530000 0.040000
v 0.690000 -0.530000 -0.000000
v 0.620000 -0.530000 -0.040000
v 0.690000 -0.530000 -0.000000
v 0.690000 -0.530000 -0.040000
v 0.620000 -0.530000 -0.000000
v 0.620000 -0.530000 -0.000000
v 0.620000 -0.530000 -0.040000
v 0.690000 -0.530000 -0.000000
v 0.690000 -0.530000 -0.040000
v 0.690000 -0.460000 0.040000
v 0.690000 -0.530000 -0.000000
v 0.690000 -0.530000 0.040000
v 0.690000 -0.460000 -0.000000
v 0.690000 -0.460000 -0.000000
v 0.690000 -0.460000 0.040000
v 0.690000 -0.530000 -0.000000
v 0.690000 -0.530000 0.040000
v 0.690000 -0.460000 -0.000000
v 0.690000 -0.530000 -0.040000
v 0.690000 -0.530000 -0.000000
v 0.690000 -0.460000 -0.040000
v 0.690000 -0.460000 -0.040000
v 0.690000 -0.460000 -0.000000
v 0.690000 -0.530000 -0.040000
v 0.690000 -0.530000 -0.000000
vn -0.0000 1.0000 -0.0000
vn -0.0000 -1.0000 -0.0000
vn -1.0000 -0.0000 -0.0000
vn 1.0000 -0.0000 -0.0000
s 0
usemtl FP_DOORFRAME
f 145//23 146//23 147//23
f 146//23 145//23 148//23
f 149//24 150//24 151//24
f 152//24 151//24 150//24
f 153//23 154//23 155//23
f 154//23 153//23 156//23
f 157//24 158//24 159//24
f 160//24 159//24 158//24
f 161//25 162//25 163//25
f 162//25 161//25 164//25
f 165//26 166//26 167//26
f 168//26 167//26 166//26
f 169//25 170//25 171//25
f 170//25 169//25 172//25
f 173//26 174//26 175//26
f 176//26 175//26 174//26
o ID56
v 0.620000 -0.490000 -0.000000
v 0.630000 -0.470000 -0.000000
v 0.620000 -0.470000 -0.000000
v 0.650000 -0.460000 -0.000000
v 0.630000 -0.460000 -0.000000
v 0.650000 -0.490000 -0.000000
v 0.620000 -0.490000 -0.000000
v 0.630000 -0.470000 -0.000000
v 0.650000 -0.490000 -0.000000
v 0.650000 -0.460000 -0.000000
v 0.630000 -0.460000 -0.000000
v 0.620000 -0.470000 -0.000000
vn -0.0000 -0.0000 1.0000
vn -0.0000 -0.0000 -1.0000
s 0
usemtl FP_GLASSBORDER
f 177//27 178//27 179//27
f 178//27 180//27 181//27
f 180//27 178//27 182//27
f 182//27 178//27 177//27
f 183//28 184//28 185//28
f 185//28 184//28 186//28
f 187//28 186//28 184//28
f 188//28 184//28 183//28
o ID62
v 0.620000 -0.470000 -0.000000
v 0.630000 -0.460000 -0.000000
v 0.620000 -0.460000 -0.000000
v 0.630000 -0.470000 -0.000000
v 0.630000 -0.470000 -0.000000
v 0.620000 -0.470000 -0.000000
v 0.630000 -0.460000 -0.000000
v 0.620000 -0.460000 -0.000000
vn -0.0000 -0.0000 1.0000
vn -0.0000 -0.0000 -1.0000
s 0
usemtl FP_GLASS
f 189//29 190//29 191//29
f 190//29 189//29 192//29
f 193//30 194//30 195//30
f 196//30 195//30 194//30
o ID68
v 0.620000 -0.530000 -0.000000
v 0.650000 -0.490000 -0.000000
v 0.620000 -0.490000 -0.000000
v 0.690000 -0.460000 -0.000000
v 0.650000 -0.460000 -0.000000
v 0.690000 -0.530000 -0.000000
v 0.620000 -0.530000 -0.000000
v 0.650000 -0.490000 -0.000000
v 0.690000 -0.530000 -0.000000
v 0.690000 -0.460000 -0.000000
v 0.650000 -0.460000 -0.000000
v 0.620000 -0.490000 -0.000000
vn -0.0000 -0.0000 1.0000
vn -0.0000 -0.0000 -1.0000
s 0
usemtl FP_DOORFRAME
f 197//31 198//31 199//31
f 198//31 200//31 201//31
f 200//31 198//31 202//31
f 202//31 198//31 197//31
f 203//32 204//32 205//32
f 205//32 204//32 206//32
f 207//32 206//32 204//32
f 208//32 204//32 203//32
o ID76
v -0.690000 0.530000 0.040000
v -0.620000 0.530000 0.020000
v -0.620000 0.530000 0.040000
v -0.690000 0.530000 0.020000
v -0.690000 0.530000 0.020000
v -0.690000 0.530000 0.040000
v -0.620000 0.530000 0.020000
v -0.620000 0.530000 0.040000
v -0.690000 0.460000 0.020000
v -0.690000 0.530000 0.040000
v -0.690000 0.460000 0.040000
v -0.690000 0.530000 0.020000
v -0.690000 0.530000 0.020000
v -0.690000 0.460000 0.020000
v -0.690000 0.530000 0.040000
v -0.690000 0.460000 0.040000
vn -0.0000 -1.0000 -0.0000
vn -0.0000 1.0000 -0.0000
vn 1.0000 -0.0000 -0.0000
vn -1.0000 -0.0000 -0.0000
s 0
usemtl FP_DOORFRAME
f 209//33 210//33 211//33
f 210//33 209//33 212//33
f 213//34 214//34 215//34
f 216//34 215//34 214//34
f 217//35 218//35 219//35
f 218//35 217//35 220//35
f 221//36 222//36 223//36
f 224//36 223//36 222//36
o ID82
v -0.750000 0.590000 0.040000
v -0.750000 0.460000 -0.040000
v -0.750000 0.460000 0.040000
v -0.750000 0.590000 -0.040000
v -0.750000 0.590000 -0.040000
v -0.750000 0.590000 0.040000
v -0.750000 0.460000 -0.040000
v -0.750000 0.460000 0.040000
v -0.750000 0.590000 -0.040000
v -0.690000 0.530000 -0.040000
v -0.750000 0.460000 -0.040000
v -0.620000 0.590000 -0.040000
v -0.620000 0.530000 -0.040000
v -0.690000 0.460000 -0.040000
v -0.690000 0.460000 -0.040000
v -0.690000 0.530000 -0.040000
v -0.750000 0.460000 -0.040000
v -0.620000 0.530000 -0.040000
v -0.620000 0.590000 -0.040000
v -0.750000 0.590000 -0.040000
v -0.750000 0.590000 0.040000
v -0.690000 0.530000 0.040000
v -0.620000 0.590000 0.040000
v -0.750000 0.460000 0.040000
v -0.620000 0.530000 0.040000
v -0.690000 0.460000 0.040000
v -0.690000 0.460000 0.040000
v -0.750000 0.460000 0.040000
v -0.690000 0.530000 0.040000
v -0.620000 0.530000 0.040000
v -0.620000 0.590000 0.040000
v -0.750000 0.590000 0.040000
v -0.750000 0.590000 -0.040000
v -0.620000 0.590000 0.040000
v -0.620000 0.590000 -0.040000
v -0.750000 0.590000 0.040000
v -0.750000 0.590000 0.040000
v -0.750000 0.590000 -0.040000
v -0.620000 0.590000 0.040000
v -0.620000 0.590000 -0.040000
vn -1.0000 -0.0000 -0.0000
vn 1.0000 -0.0000 -0.0000
vn -0.0000 -0.0000 -1.0000
vn -0.0000 -0.0000 1.0000
vn -0.0000 1.0000 -0.0000
vn -0.0000 -1.0000 -0.0000
s 0
usemtl FP_DOORFRAME
f 225//37 226//37 227//37
f 226//37 225//37 228//37
f 229//38 230//38 231//38
f 232//38 231//38 230//38
f 233//39 234//39 235//39
f 234//39 233//39 236//39
f 234//39 236//39 237//39
f 235//39 234//39 238//39
f 239//40 240//40 241//40
f 242//40 243//40 240//40
f 243//40 244//40 240//40
f 241//40 240//40 244//40
f 245//40 246//40 247//40
f 246//40 245//40 248//40
f 247//40 246//40 249//40
f 246//40 248//40 250//40
f 251//39 252//39 253//39
f 254//39 253//39 255//39
f 252//39 256//39 253//39
f 255//39 253//39 256//39
f 257//41 258//41 259//41
f 258//41 257//41 260//41
f 261//42 262//42 263//42
f 264//42 263//42 262//42
o ID88
v -0.690000 0.460000 -0.040000
v -0.690000 0.530000 -0.020000
v -0.690000 0.460000 -0.020000
v -0.690000 0.530000 -0.040000
v -0.690000 0.530000 -0.040000
v -0.690000 0.460000 -0.040000
v -0.690000 0.530000 -0.020000
v -0.690000 0.460000 -0.020000
v -0.690000 0.530000 -0.020000
v -0.620000 0.530000 -0.040000
v -0.620000 0.530000 -0.020000
v -0.690000 0.530000 -0.040000
v -0.690000 0.530000 -0.040000
v -0.690000 0.530000 -0.020000
v -0.620000 0.530000 -0.040000
v -0.620000 0.530000 -0.020000
vn 1.0000 -0.0000 -0.0000
vn -1.0000 -0.0000 -0.0000
vn -0.0000 -1.0000 -0.0000
vn -0.0000 1.0000 -0.0000
s 0
usemtl FP_DOORFRAME
f 265//43 266//43 267//43
f 266//43 265//43 268//43
f 269//44 270//44 271//44
f 272//44 271//44 270//44
f 273//45 274//45 275//45
f 274//45 273//45 276//45
f 277//46 278//46 279//46
f 280//46 279//46 278//46
o ID94
v -0.650000 0.460000 -0.020000
v -0.650000 0.490000 0.000000
v -0.650000 0.460000 0.000000
v -0.650000 0.490000 -0.020000
v -0.650000 0.490000 -0.020000
v -0.650000 0.460000 -0.020000
v -0.650000 0.490000 0.000000
v -0.650000 0.460000 0.000000
v -0.650000 0.490000 0.020000
v -0.650000 0.460000 0.000000
v -0.650000 0.460000 0.020000
v -0.650000 0.490000 0.000000
v -0.650000 0.490000 0.000000
v -0.650000 0.490000 0.020000
v -0.650000 0.460000 0.000000
v -0.650000 0.460000 0.020000
v -0.620000 0.530000 -0.020000
v -0.690000 0.460000 -0.020000
v -0.690000 0.530000 -0.020000
v -0.650000 0.490000 -0.020000
v -0.620000 0.490000 -0.020000
v -0.650000 0.460000 -0.020000
v -0.650000 0.460000 -0.020000
v -0.650000 0.490000 -0.020000
v -0.690000 0.460000 -0.020000
v -0.620000 0.490000 -0.020000
v -0.620000 0.530000 -0.020000
v -0.690000 0.530000 -0.020000
v -0.650000 0.490000 0.000000
v -0.620000 0.490000 -0.020000
v -0.620000 0.490000 0.000000
v -0.650000 0.490000 -0.020000
v -0.650000 0.490000 -0.020000
v -0.650000 0.490000 0.000000
v -0.620000 0.490000 -0.020000
v -0.620000 0.490000 0.000000
v -0.620000 0.530000 0.020000
v -0.690000 0.460000 0.020000
v -0.690000 0.530000 0.020000
v -0.650000 0.490000 0.020000
v -0.620000 0.490000 0.020000
v -0.650000 0.460000 0.020000
v -0.650000 0.460000 0.020000
v -0.650000 0.490000 0.020000
v -0.690000 0.460000 0.020000
v -0.620000 0.490000 0.020000
v -0.620000 0.530000 0.020000
v -0.690000 0.530000 0.020000
v -0.650000 0.490000 0.000000
v -0.620000 0.490000 0.020000
v -0.620000 0.490000 0.000000
v -0.650000 0.490000 0.020000
v -0.650000 0.490000 0.020000
v -0.650000 0.490000 0.000000
v -0.620000 0.490000 0.020000
v -0.620000 0.490000 0.000000
v -0.690000 0.530000 -0.020000
v -0.620000 0.530000 0.020000
v -0.620000 0.530000 -0.020000
v -0.690000 0.530000 0.020000
v -0.690000 0.530000 0.020000
v -0.690000 0.530000 -0.020000
v -0.620000 0.530000 0.020000
v -0.620000 0.530000 -0.020000
v -0.690000 0.530000 0.020000
v -0.690000 0.460000 -0.020000
v -0.690000 0.460000 0.020000
v -0.690000 0.530000 -0.020000
v -0.690000 0.530000 -0.020000
v -0.690000 0.530000 0.020000
v -0.690000 0.460000 -0.020000
v -0.690000 0.460000 0.020000
vn 1.0000 -0.0000 -0.0000
vn -1.0000 -0.0000 -0.0000
vn -0.0000 -0.0000 -1.0000
vn -0.0000 -0.0000 1.0000
vn -0.0000 -1.0000 -0.0000
vn -0.0000 1.0000 -0.0000
s 0
usemtl FP_DOORFRAME
f 281//47 282//47 283//47
f 282//47 281//47 284//47
f 285//48 286//48 287//48
f 288//48 287//48 286//48
f 289//48 290//48 291//48
f 290//48 289//48 292//48
f 293//47 294//47 295//47
f 296//47 295//47 294//47
f 297//49 298//49 299//49
f 298//49 297//49 300//49
f 300//49 297//49 301//49
f 298//49 300//49 302//49
f 303//50 304//50 305//50
f 306//50 307//50 304//50
f 304//50 307//50 305//50
f 308//50 305//50 307//50
f 309//51 310//51 311//51
f 310//51 309//51 312//51
f 313//52 314//52 315//52
f 316//52 315//52 314//52
f 317//49 318//49 319//49
f 318//49 317//49 320//49
f 320//49 317//49 321//49
f 318//49 320//49 322//49
f 323//50 324//50 325//50
f 326//50 327//50 324//50
f 324//50 327//50 325//50
f 328//50 325//50 327//50
f 329//52 330//52 331//52
f 330//52 329//52 332//52
f 333//51 334//51 335//51
f 336//51 335//51 334//51
f 337//52 338//52 339//52
f 338//52 337//52 340//52
f 341//51 342//51 343//51
f 344//51 343//51 342//51
f 345//48 346//48 347//48
f 346//48 345//48 348//48
f 349//47 350//47 351//47
f 352//47 351//47 350//47
o ID100
v -0.630000 0.460000 0.000000
v -0.620000 0.470000 0.000000
v -0.630000 0.470000 0.000000
v -0.620000 0.460000 0.000000
v -0.620000 0.460000 0.000000
v -0.630000 0.460000 0.000000
v -0.620000 0.470000 0.000000
v -0.630000 0.470000 0.000000
vn -0.0000 -0.0000 1.0000
vn -0.0000 -0.0000 -1.0000
s 0
usemtl FP_GLASS
f 353//53 354//53 355//53
f 354//53 353//53 356//53
f 357//54 358//54 359//54
f 360//54 359//54 358//54
o ID106
v -0.620000 0.470000 0.000000
v -0.620000 0.490000 0.000000
v -0.630000 0.470000 0.000000
v -0.650000 0.460000 0.000000
v -0.650000 0.490000 0.000000
v -0.630000 0.460000 0.000000
v -0.630000 0.460000 0.000000
v -0.650000 0.460000 0.000000
v -0.630000 0.470000 0.000000
v -0.620000 0.490000 0.000000
v -0.650000 0.490000 0.000000
v -0.620000 0.470000 0.000000
vn -0.0000 -0.0000 1.0000
vn -0.0000 -0.0000 -1.0000
s 0
usemtl FP_GLASSBORDER
f 361//55 362//55 363//55
f 364//55 362//55 365//55
f 362//55 364//55 363//55
f 363//55 364//55 366//55
f 367//56 368//56 369//56
f 369//56 368//56 370//56
f 371//56 370//56 368//56
f 369//56 370//56 372//56
o ID114
v -0.690000 -0.530000 0.020000
v -0.620000 -0.530000 -0.020000
v -0.620000 -0.530000 0.020000
v -0.690000 -0.530000 -0.020000
v -0.690000 -0.530000 -0.020000
v -0.690000 -0.530000 0.020000
v -0.620000 -0.530000 -0.020000
v -0.620000 -0.530000 0.020000
v -0.620000 -0.530000 -0.020000
v -0.650000 -0.490000 -0.020000
v -0.620000 -0.490000 -0.020000
v -0.690000 -0.530000 -0.020000
v -0.690000 -0.460000 -0.020000
v -0.650000 -0.460000 -0.020000
v -0.690000 -0.530000 -0.020000
v -0.650000 -0.490000 -0.020000
v -0.690000 -0.460000 -0.020000
v -0.650000 -0.460000 -0.020000
v -0.620000 -0.530000 -0.020000
v -0.620000 -0.490000 -0.020000
v -0.620000 -0.530000 0.020000
v -0.650000 -0.490000 0.020000
v -0.620000 -0.490000 0.020000
v -0.690000 -0.530000 0.020000
v -0.690000 -0.460000 0.020000
v -0.650000 -0.460000 0.020000
v -0.690000 -0.530000 0.020000
v -0.650000 -0.490000 0.020000
v -0.690000 -0.460000 0.020000
v -0.650000 -0.460000 0.020000
v -0.620000 -0.530000 0.020000
v -0.620000 -0.490000 0.020000
v -0.690000 -0.460000 0.020000
v -0.690000 -0.530000 -0.020000
v -0.690000 -0.530000 0.020000
v -0.690000 -0.460000 -0.020000
v -0.690000 -0.460000 -0.020000
v -0.690000 -0.460000 0.020000
v -0.690000 -0.530000 -0.020000
v -0.690000 -0.530000 0.020000
v -0.650000 -0.490000 -0.020000
v -0.620000 -0.490000 0.000000
v -0.620000 -0.490000 -0.020000
v -0.650000 -0.490000 0.000000
v -0.650000 -0.490000 0.000000
v -0.650000 -0.490000 -0.020000
v -0.620000 -0.490000 0.000000
v -0.620000 -0.490000 -0.020000
v -0.650000 -0.490000 -0.020000
v -0.650000 -0.460000 0.000000
v -0.650000 -0.490000 0.000000
v -0.650000 -0.460000 -0.020000
v -0.650000 -0.460000 -0.020000
v -0.650000 -0.490000 -0.020000
v -0.650000 -0.460000 0.000000
v -0.650000 -0.490000 0.000000
v -0.650000 -0.490000 0.020000
v -0.620000 -0.490000 0.000000
v -0.620000 -0.490000 0.020000
v -0.650000 -0.490000 0.000000
v -0.650000 -0.490000 0.020000
v -0.620000 -0.490000 0.000000
v -0.620000 -0.490000 0.020000
v -0.650000 -0.460000 0.020000
v -0.650000 -0.490000 0.000000
v -0.650000 -0.490000 0.020000
v -0.650000 -0.460000 0.000000
v -0.650000 -0.460000 0.000000
v -0.650000 -0.460000 0.020000
v -0.650000 -0.490000 0.000000
v -0.650000 -0.490000 0.020000
vn -0.0000 -1.0000 -0.0000
vn -0.0000 1.0000 -0.0000
vn -0.0000 -0.0000 -1.0000
vn -0.0000 -0.0000 1.0000
vn -1.0000 -0.0000 -0.0000
vn 1.0000 -0.0000 -0.0000
s 0
usemtl FP_DOORFRAME
f 373//57 374//57 375//57
f 374//57 373//57 376//57
f 377//58 378//58 379//58
f 380//58 379//58 378//58
f 381//59 382//59 383//59
f 382//59 381//59 384//59
f 382//59 385//59 386//59
f 385//59 382//59 384//59
f 387//60 388//60 389//60
f 390//60 389//60 388//60
f 387//60 391//60 388//60
f 392//60 388//60 391//60
f 393//59 394//59 395//59
f 394//59 393//59 396//59
f 394//59 397//59 398//59
f 397//59 394//59 396//59
f 399//60 400//60 401//60
f 402//60 401//60 400//60
f 399//60 403//60 400//60
f 404//60 400//60 403//60
f 405//61 406//61 407//61
f 406//61 405//61 408//61
f 409//62 410//62 411//62
f 412//62 411//62 410//62
f 413//58 414//58 415//58
f 414//58 413//58 416//58
f 417//57 418//57 419//57
f 420//57 419//57 418//57
f 421//62 422//62 423//62
f 422//62 421//62 424//62
f 425//61 426//61 427//61
f 428//61 427//61 426//61
f 429//57 430//57 431//57
f 430//57 429//57 432//57
f 416//58 433//58 434//58
f 435//58 434//58 433//58
f 436//61 437//61 438//61
f 437//61 436//61 439//61
f 440//62 441//62 442//62
f 443//62 442//62 441//62
o ID120
v -0.750000 -0.590000 0.040000
v -0.690000 -0.460000 0.040000
v -0.750000 -0.460000 0.040000
v -0.690000 -0.530000 0.040000
v -0.620000 -0.590000 0.040000
v -0.620000 -0.530000 0.040000
v -0.750000 -0.590000 0.040000
v -0.690000 -0.530000 0.040000
v -0.620000 -0.590000 0.040000
v -0.620000 -0.530000 0.040000
v -0.690000 -0.460000 0.040000
v -0.750000 -0.460000 0.040000
v -0.750000 -0.590000 0.040000
v -0.620000 -0.590000 -0.040000
v -0.620000 -0.590000 0.040000
v -0.750000 -0.590000 -0.040000
v -0.750000 -0.590000 -0.040000
v -0.750000 -0.590000 0.040000
v -0.620000 -0.590000 -0.040000
v -0.620000 -0.590000 0.040000
v -0.750000 -0.460000 0.040000
v -0.750000 -0.590000 -0.040000
v -0.750000 -0.590000 0.040000
v -0.750000 -0.460000 -0.040000
v -0.750000 -0.460000 -0.040000
v -0.750000 -0.460000 0.040000
v -0.750000 -0.590000 -0.040000
v -0.750000 -0.590000 0.040000
v -0.620000 -0.590000 -0.040000
v -0.690000 -0.530000 -0.040000
v -0.620000 -0.530000 -0.040000
v -0.750000 -0.460000 -0.040000
v -0.690000 -0.460000 -0.040000
v -0.750000 -0.590000 -0.040000
v -0.620000 -0.590000 -0.040000
v -0.690000 -0.530000 -0.040000
v -0.750000 -0.590000 -0.040000
v -0.750000 -0.460000 -0.040000
v -0.690000 -0.460000 -0.040000
v -0.620000 -0.530000 -0.040000
vn -0.0000 -0.0000 1.0000
vn -0.0000 -0.0000 -1.0000
vn -0.0000 -1.0000 -0.0000
vn -0.0000 1.0000 -0.0000
vn -1.0000 -0.0000 -0.0000
vn 1.0000 -0.0000 -0.0000
s 0
usemtl FP_DOORFRAME
f 444//63 445//63 446//63
f 445//63 444//63 447//63
f 447//63 448//63 449//63
f 448//63 447//63 444//63
f 450//64 451//64 452//64
f 453//64 452//64 451//64
f 451//64 450//64 454//64
f 455//64 454//64 450//64
f 456//65 457//65 458//65
f 457//65 456//65 459//65
f 460//66 461//66 462//66
f 463//66 462//66 461//66
f 464//67 465//67 466//67
f 465//67 464//67 467//67
f 468//68 469//68 470//68
f 471//68 470//68 469//68
f 472//64 473//64 474//64
f 473//64 475//64 476//64
f 475//64 473//64 477//64
f 477//64 473//64 472//64
f 478//63 479//63 480//63
f 480//63 479//63 481//63
f 482//63 481//63 479//63
f 483//63 479//63 478//63
o ID126
v -0.690000 -0.530000 -0.040000
v -0.690000 -0.460000 -0.020000
v -0.690000 -0.530000 -0.020000
v -0.690000 -0.460000 -0.040000
v -0.690000 -0.460000 -0.040000
v -0.690000 -0.530000 -0.040000
v -0.690000 -0.460000 -0.020000
v -0.690000 -0.530000 -0.020000
v -0.690000 -0.530000 -0.040000
v -0.620000 -0.530000 -0.020000
v -0.620000 -0.530000 -0.040000
v -0.690000 -0.530000 -0.020000
v -0.690000 -0.530000 -0.020000
v -0.690000 -0.530000 -0.040000
v -0.620000 -0.530000 -0.020000
v -0.620000 -0.530000 -0.040000
vn 1.0000 -0.0000 -0.0000
vn -1.0000 -0.0000 -0.0000
vn -0.0000 1.0000 -0.0000
vn -0.0000 -1.0000 -0.0000
s 0
usemtl FP_DOORFRAME
f 484//69 485//69 486//69
f 485//69 484//69 487//69
f 488//70 489//70 490//70
f 491//70 490//70 489//70
f 492//71 493//71 494//71
f 493//71 492//71 495//71
f 496//72 497//72 498//72
f 499//72 498//72 497//72
o ID132
v -0.650000 -0.490000 0.000000
v -0.630000 -0.460000 0.000000
v -0.650000 -0.460000 0.000000
v -0.630000 -0.470000 0.000000
v -0.620000 -0.470000 0.000000
v -0.620000 -0.490000 0.000000
v -0.620000 -0.490000 0.000000
v -0.650000 -0.490000 0.000000
v -0.620000 -0.470000 0.000000
v -0.630000 -0.470000 0.000000
v -0.630000 -0.460000 0.000000
v -0.650000 -0.460000 0.000000
vn -0.0000 -0.0000 1.0000
vn -0.0000 -0.0000 -1.0000
s 0
usemtl FP_GLASSBORDER
f 500//73 501//73 502//73
f 501//73 500//73 503//73
f 503//73 500//73 504//73
f 504//73 500//73 505//73
f 506//74 507//74 508//74
f 508//74 507//74 509//74
f 509//74 507//74 510//74
f 511//74 510//74 507//74
o ID138
v -0.630000 -0.470000 0.000000
v -0.620000 -0.460000 0.000000
v -0.630000 -0.460000 0.000000
v -0.620000 -0.470000 0.000000
v -0.620000 -0.470000 0.000000
v -0.630000 -0.470000 0.000000
v -0.620000 -0.460000 0.000000
v -0.630000 -0.460000 0.000000
vn -0.0000 -0.0000 1.0000
vn -0.0000 -0.0000 -1.0000
s 0
usemtl FP_GLASS
f 512//75 513//75 514//75
f 513//75 512//75 515//75
f 516//76 517//76 518//76
f 519//76 518//76 517//76
o ID144
v -0.690000 -0.530000 0.020000
v -0.690000 -0.460000 0.040000
v -0.690000 -0.530000 0.040000
v -0.690000 -0.460000 0.020000
v -0.690000 -0.460000 0.020000
v -0.690000 -0.530000 0.020000
v -0.690000 -0.460000 0.040000
v -0.690000 -0.530000 0.040000
v -0.690000 -0.530000 0.020000
v -0.620000 -0.530000 0.040000
v -0.620000 -0.530000 0.020000
v -0.690000 -0.530000 0.040000
v -0.690000 -0.530000 0.040000
v -0.690000 -0.530000 0.020000
v -0.620000 -0.530000 0.040000
v -0.620000 -0.530000 0.020000
vn 1.0000 -0.0000 -0.0000
vn -1.0000 -0.0000 -0.0000
vn -0.0000 1.0000 -0.0000
vn -0.0000 -1.0000 -0.0000
s 0
usemtl FP_DOORFRAME
f 520//77 521//77 522//77
f 521//77 520//77 523//77
f 524//78 525//78 526//78
f 527//78 526//78 525//78
f 528//79 529//79 530//79
f 529//79 528//79 531//79
f 532//80 533//80 534//80
f 535//80 534//80 533//80
o ID152
v 0.690000 0.460000 -0.000000
v 0.690000 -0.460000 -0.040000
v 0.690000 -0.460000 -0.000000
v 0.690000 0.460000 -0.040000
v 0.690000 0.460000 -0.040000
v 0.690000 0.460000 -0.000000
v 0.690000 -0.460000 -0.040000
v 0.690000 -0.460000 -0.000000
v 0.690000 0.460000 0.040000
v 0.690000 -0.460000 -0.000000
v 0.690000 -0.460000 0.040000
v 0.690000 0.460000 -0.000000
v 0.690000 0.460000 -0.000000
v 0.690000 0.460000 0.040000
v 0.690000 -0.460000 -0.000000
v 0.690000 -0.460000 0.040000
vn -1.0000 -0.0000 -0.0000
vn 1.0000 -0.0000 -0.0000
s 0
usemtl FP_DOORFRAME
f 536//81 537//81 538//81
f 537//81 536//81 539//81
f 540//82 541//82 542//82
f 543//82 542//82 541//82
f 544//81 545//81 546//81
f 545//81 544//81 547//81
f 548//82 549//82 550//82
f 551//82 550//82 549//82
o ID158
v 0.690000 -0.460000 -0.040000
v 0.750000 -0.460000 0.040000
v 0.750000 -0.460000 -0.040000
v 0.690000 -0.460000 0.040000
v 0.690000 -0.460000 -0.000000
vn -0.0000 1.0000 -0.0000
vn -0.0000 1.0000 0.0001
vn -0.0000 1.0000 -0.0001
s 0
usemtl FP_DOORFRAME
f 552//83 553//83 554//83
f 553//83 552//83 555//83
s 1
f 555//84 552//85 556//85
o ID166
v 0.620000 -0.460000 -0.000000
v 0.630000 0.460000 -0.000000
v 0.620000 0.460000 -0.000000
v 0.630000 -0.460000 -0.000000
v 0.630000 -0.460000 -0.000000
v 0.620000 -0.460000 -0.000000
v 0.630000 0.460000 -0.000000
v 0.620000 0.460000 -0.000000
vn -0.0000 -0.0000 1.0000
vn -0.0000 -0.0000 -1.0000
s 0
usemtl FP_GLASS
f 557//86 558//86 559//86
f 558//86 557//86 560//86
f 561//87 562//87 563//87
f 564//87 563//87 562//87
o ID172
v 0.630000 -0.460000 -0.000000
v 0.650000 0.460000 -0.000000
v 0.630000 0.460000 -0.000000
v 0.650000 -0.460000 -0.000000
v 0.650000 -0.460000 -0.000000
v 0.630000 -0.460000 -0.000000
v 0.650000 0.460000 -0.000000
v 0.630000 0.460000 -0.000000
vn -0.0000 -0.0000 1.0000
vn -0.0000 -0.0000 -1.0000
s 0
usemtl FP_GLASSBORDER
f 565//88 566//88 567//88
f 566//88 565//88 568//88
f 569//89 570//89 571//89
f 572//89 571//89 570//89
o ID178
v 0.690000 -0.460000 0.040000
v 0.750000 0.460000 0.040000
v 0.690000 0.460000 0.040000
v 0.750000 -0.460000 0.040000
v 0.750000 -0.460000 0.040000
v 0.690000 -0.460000 0.040000
v 0.750000 0.460000 0.040000
v 0.690000 0.460000 0.040000
v 0.750000 -0.460000 -0.040000
v 0.750000 0.460000 0.040000
v 0.750000 -0.460000 0.040000
v 0.750000 0.460000 -0.040000
v 0.750000 0.460000 -0.040000
v 0.750000 -0.460000 -0.040000
v 0.750000 0.460000 0.040000
v 0.750000 -0.460000 0.040000
v 0.750000 -0.460000 -0.040000
v 0.690000 0.460000 -0.040000
v 0.750000 0.460000 -0.040000
v 0.690000 -0.460000 -0.040000
v 0.690000 -0.460000 -0.040000
v 0.750000 -0.460000 -0.040000
v 0.690000 0.460000 -0.040000
v 0.750000 0.460000 -0.040000
vn -0.0000 -0.0000 1.0000
vn -0.0000 -0.0000 -1.0000
vn 1.0000 -0.0000 -0.0000
vn -1.0000 -0.0000 -0.0000
s 0
usemtl FP_DOORFRAME
f 573//90 574//90 575//90
f 574//90 573//90 576//90
f 577//91 578//91 579//91
f 580//91 579//91 578//91
f 581//92 582//92 583//92
f 582//92 581//92 584//92
f 585//93 586//93 587//93
f 588//93 587//93 586//93
f 589//91 590//91 591//91
f 590//91 589//91 592//91
f 593//90 594//90 595//90
f 596//90 595//90 594//90
o ID184
v 0.650000 -0.460000 -0.000000
v 0.690000 0.460000 -0.000000
v 0.650000 0.460000 -0.000000
v 0.690000 -0.460000 -0.000000
v 0.690000 -0.460000 -0.000000
v 0.650000 -0.460000 -0.000000
v 0.690000 0.460000 -0.000000
v 0.650000 0.460000 -0.000000
vn -0.0000 -0.0000 1.0000
vn -0.0000 -0.0000 -1.0000
s 0
usemtl FP_DOORFRAME
f 597//94 598//94 599//94
f 598//94 597//94 600//94
f 601//95 602//95 603//95
f 604//95 603//95 602//95
o ID190
v 0.690000 0.460000 -0.040000
v 0.750000 0.460000 0.040000
v 0.750000 0.460000 -0.040000
v 0.690000 0.460000 -0.000000
v 0.690000 0.460000 0.040000
vn -0.0000 1.0000 -0.0000
s 0
usemtl FP_DOORFRAME
f 605//96 606//96 607//96
f 606//96 605//96 608//96
f 609//96 606//96 608//96
o ID198
v -0.630000 -0.460000 0.000000
v -0.620000 0.460000 0.000000
v -0.630000 0.460000 0.000000
v -0.620000 -0.460000 0.000000
v -0.620000 -0.460000 0.000000
v -0.630000 -0.460000 0.000000
v -0.620000 0.460000 0.000000
v -0.630000 0.460000 0.000000
vn -0.0000 -0.0000 1.0000
vn -0.0000 -0.0000 -1.0000
s 0
usemtl FP_GLASS
f 610//97 611//97 612//97
f 611//97 610//97 613//97
f 614//98 615//98 616//98
f 617//98 616//98 615//98
o ID204
v -0.650000 0.460000 0.020000
v -0.650000 -0.460000 0.000000
v -0.650000 -0.460000 0.020000
v -0.650000 0.460000 0.000000
v -0.650000 0.460000 0.000000
v -0.650000 0.460000 0.020000
v -0.650000 -0.460000 0.000000
v -0.650000 -0.460000 0.020000
v -0.650000 -0.460000 -0.020000
v -0.650000 0.460000 0.000000
v -0.650000 -0.460000 0.000000
v -0.650000 0.460000 -0.020000
v -0.650000 0.460000 -0.020000
v -0.650000 -0.460000 -0.020000
v -0.650000 0.460000 0.000000
v -0.650000 -0.460000 0.020000
v -0.690000 0.460000 0.020000
v -0.650000 0.460000 0.020000
v -0.690000 -0.460000 0.020000
v -0.690000 -0.460000 0.020000
v -0.650000 -0.460000 0.020000
v -0.690000 0.460000 0.020000
v -0.650000 0.460000 0.020000
v -0.650000 -0.460000 -0.020000
v -0.690000 0.460000 -0.020000
v -0.650000 0.460000 -0.020000
v -0.690000 -0.460000 -0.020000
v -0.690000 -0.460000 -0.020000
v -0.650000 -0.460000 -0.020000
v -0.690000 0.460000 -0.020000
v -0.650000 0.460000 -0.020000
v -0.690000 0.460000 0.020000
v -0.690000 -0.460000 -0.020000
v -0.690000 -0.460000 0.020000
v -0.690000 0.460000 -0.020000
v -0.690000 0.460000 -0.020000
v -0.690000 0.460000 0.020000
v -0.690000 -0.460000 -0.020000
v -0.690000 -0.460000 0.020000
vn -1.0000 -0.0000 -0.0000
vn 1.0000 -0.0000 -0.0000
vn -0.0000 -0.0000 -1.0000
vn -0.0000 -0.0000 1.0000
s 0
usemtl FP_DOORFRAME
f 618//99 619//99 620//99
f 619//99 618//99 621//99
f 622//100 623//100 624//100
f 625//100 624//100 623//100
f 626//100 627//100 628//100
f 627//100 626//100 629//100
f 630//99 631//99 632//99
f 619//99 632//99 631//99
f 633//101 634//101 635//101
f 634//101 633//101 636//101
f 637//102 638//102 639//102
f 640//102 639//102 638//102
f 641//101 642//101 643//101
f 642//101 641//101 644//101
f 645//102 646//102 647//102
f 648//102 647//102 646//102
f 649//99 650//99 651//99
f 650//99 649//99 652//99
f 653//100 654//100 655//100
f 656//100 655//100 654//100
o ID210
v -0.690000 -0.460000 -0.020000
v -0.650000 -0.460000 0.000000
v -0.650000 -0.460000 -0.020000
v -0.650000 -0.460000 0.020000
v -0.690000 -0.460000 0.020000
vn -0.0000 1.0000 -0.0000
s 0
usemtl FP_DOORFRAME
f 657//103 658//103 659//103
f 658//103 657//103 660//103
f 660//103 657//103 661//103
o ID216
v -0.750000 0.460000 -0.040000
v -0.690000 0.460000 -0.020000
v -0.690000 0.460000 -0.040000
v -0.690000 0.460000 0.020000
v -0.690000 0.460000 0.040000
v -0.750000 0.460000 0.040000
vn -0.0000 1.0000 -0.0000
s 0
usemtl FP_DOORFRAME
f 662//104 663//104 664//104
f 663//104 662//104 665//104
f 665//104 662//104 666//104
f 666//104 662//104 667//104
o ID222
v -0.690000 -0.460000 0.020000
v -0.690000 0.460000 0.040000
v -0.690000 -0.460000 0.040000
v -0.690000 0.460000 0.020000
v -0.690000 0.460000 0.020000
v -0.690000 -0.460000 0.020000
v -0.690000 0.460000 0.040000
v -0.690000 -0.460000 0.040000
vn 1.0000 -0.0000 -0.0000
vn -1.0000 -0.0000 -0.0000
s 0
usemtl FP_DOORFRAME
f 668//105 669//105 670//105
f 669//105 668//105 671//105
f 672//106 673//106 674//106
f 675//106 674//106 673//106
o ID228
v -0.690000 -0.460000 -0.040000
v -0.750000 0.460000 -0.040000
v -0.690000 0.460000 -0.040000
v -0.750000 -0.460000 -0.040000
v -0.750000 -0.460000 -0.040000
v -0.690000 -0.460000 -0.040000
v -0.750000 0.460000 -0.040000
v -0.690000 0.460000 -0.040000
v -0.750000 0.460000 0.040000
v -0.750000 -0.460000 -0.040000
v -0.750000 -0.460000 0.040000
v -0.750000 0.460000 -0.040000
v -0.750000 0.460000 -0.040000
v -0.750000 0.460000 0.040000
v -0.750000 -0.460000 -0.040000
v -0.750000 -0.460000 0.040000
v -0.750000 -0.460000 0.040000
v -0.690000 0.460000 0.040000
v -0.750000 0.460000 0.040000
v -0.690000 -0.460000 0.040000
v -0.690000 -0.460000 0.040000
v -0.750000 -0.460000 0.040000
v -0.690000 0.460000 0.040000
v -0.750000 0.460000 0.040000
vn -0.0000 -0.0000 -1.0000
vn -0.0000 -0.0000 1.0000
vn -1.0000 -0.0000 -0.0000
vn 1.0000 -0.0000 -0.0000
s 0
usemtl FP_DOORFRAME
f 676//107 677//107 678//107
f 677//107 676//107 679//107
f 680//108 681//108 682//108
f 683//108 682//108 681//108
f 684//109 685//109 686//109
f 685//109 684//109 687//109
f 688//110 689//110 690//110
f 691//110 690//110 689//110
f 692//108 693//108 694//108
f 693//108 692//108 695//108
f 696//107 697//107 698//107
f 699//107 698//107 697//107
o ID234
v -0.690000 -0.460000 -0.040000
v -0.690000 0.460000 -0.020000
v -0.690000 -0.460000 -0.020000
v -0.690000 0.460000 -0.040000
v -0.690000 0.460000 -0.040000
v -0.690000 -0.460000 -0.040000
v -0.690000 0.460000 -0.020000
v -0.690000 -0.460000 -0.020000
vn 1.0000 -0.0000 -0.0000
vn -1.0000 -0.0000 -0.0000
s 0
usemtl FP_DOORFRAME
f 700//111 701//111 702//111
f 701//111 700//111 703//111
f 704//112 705//112 706//112
f 707//112 706//112 705//112
o ID240
v -0.650000 -0.460000 0.000000
v -0.630000 0.460000 0.000000
v -0.650000 0.460000 0.000000
v -0.630000 -0.460000 0.000000
v -0.630000 -0.460000 0.000000
v -0.650000 -0.460000 0.000000
v -0.630000 0.460000 0.000000
v -0.650000 0.460000 0.000000
vn -0.0000 -0.0000 1.0000
vn -0.0000 -0.0000 -1.0000
s 0
usemtl FP_GLASSBORDER
f 708//113 709//113 710//113
f 709//113 708//113 711//113
f 712//114 713//114 714//114
f 715//114 714//114 713//114
o ID248
v -0.620000 0.470000 0.000000
v -0.028506 0.490000 0.000000
v -0.620000 0.490000 0.000000
v -0.042759 0.470000 0.000000
v -0.028506 0.460000 0.000000
v -0.042759 0.460000 0.000000
v -0.042759 0.460000 0.000000
v -0.042759 0.470000 0.000000
v -0.028506 0.460000 0.000000
v -0.028506 0.490000 0.000000
v -0.620000 0.470000 0.000000
v -0.620000 0.490000 0.000000
vn -0.0000 -0.0000 1.0000
vn -0.0000 -0.0000 -1.0000
s 0
usemtl FP_GLASSBORDER
f 716//115 717//115 718//115
f 717//115 716//115 719//115
f 717//115 719//115 720//115
f 720//115 719//115 721//115
f 722//116 723//116 724//116
f 724//116 723//116 725//116
f 723//116 726//116 725//116
f 727//116 725//116 726//116
o ID254
v 0.042759 0.460000 -0.000000
v 0.620000 0.470000 -0.000000
v 0.042759 0.470000 -0.000000
v 0.620000 0.460000 -0.000000
v 0.620000 0.460000 -0.000000
v 0.042759 0.460000 -0.000000
v 0.620000 0.470000 -0.000000
v 0.042759 0.470000 -0.000000
vn -0.0000 -0.0000 1.0000
vn -0.0000 -0.0000 -1.0000
s 0
usemtl FP_GLASS
f 728//117 729//117 730//117
f 729//117 728//117 731//117
f 732//118 733//118 734//118
f 735//118 734//118 733//118
o ID260
v 0.000000 0.530000 0.020000
v -0.620000 0.530000 0.020000
v -0.591494 0.530000 0.020000
v -0.620000 0.490000 0.020000
v -0.028506 0.490000 0.020000
v 0.000000 0.460000 0.020000
v -0.028506 0.460000 0.020000
v -0.028506 0.460000 0.020000
v 0.000000 0.460000 0.020000
v -0.028506 0.490000 0.020000
v 0.000000 0.530000 0.020000
v -0.620000 0.490000 0.020000
v -0.620000 0.530000 0.020000
v -0.591494 0.530000 0.020000
v -0.620000 0.490000 0.000000
v -0.028506 0.490000 0.020000
v -0.028506 0.490000 0.000000
v -0.620000 0.490000 0.020000
v -0.620000 0.490000 0.020000
v -0.620000 0.490000 0.000000
v -0.028506 0.490000 0.020000
v -0.028506 0.490000 0.000000
v -0.620000 0.530000 -0.020000
v -0.591494 0.530000 0.020000
v -0.591494 0.530000 -0.020000
v -0.620000 0.530000 0.020000
v -0.620000 0.530000 0.020000
v -0.620000 0.530000 -0.020000
v -0.591494 0.530000 0.020000
v -0.591494 0.530000 -0.020000
v 0.000000 0.530000 0.020000
v 0.000000 0.460000 0.000000
v 0.000000 0.460000 0.020000
v 0.000000 0.530000 0.000000
v 0.000000 0.530000 0.000000
v 0.000000 0.530000 0.020000
v 0.000000 0.460000 0.000000
v 0.000000 0.460000 0.020000
v -0.028506 0.460000 0.000000
v -0.028506 0.490000 0.020000
v -0.028506 0.460000 0.020000
v -0.028506 0.490000 0.000000
v -0.028506 0.490000 0.000000
v -0.028506 0.460000 0.000000
v -0.028506 0.490000 0.020000
v -0.028506 0.460000 0.020000
v -0.620000 0.490000 0.000000
v -0.028506 0.490000 -0.020000
v -0.028506 0.490000 0.000000
v -0.620000 0.490000 -0.020000
v -0.620000 0.490000 -0.020000
v -0.620000 0.490000 0.000000
v -0.028506 0.490000 -0.020000
v -0.028506 0.490000 0.000000
v 0.000000 0.530000 -0.020000
v -0.620000 0.530000 -0.020000
v -0.591494 0.530000 -0.020000
v -0.620000 0.490000 -0.020000
v -0.028506 0.490000 -0.020000
v 0.000000 0.460000 -0.020000
v -0.028506 0.460000 -0.020000
v -0.028506 0.460000 -0.020000
v 0.000000 0.460000 -0.020000
v -0.028506 0.490000 -0.020000
v 0.000000 0.530000 -0.020000
v -0.620000 0.490000 -0.020000
v -0.620000 0.530000 -0.020000
v -0.591494 0.530000 -0.020000
v 0.620000 0.490000 -0.000000
v 0.620000 0.530000 -0.000000
v 0.028506 0.490000 -0.000000
v 0.000000 0.530000 0.000000
v 0.000000 0.460000 0.000000
v 0.028506 0.460000 -0.000000
v 0.028506 0.460000 -0.000000
v 0.000000 0.460000 0.000000
v 0.028506 0.490000 -0.000000
v 0.000000 0.530000 0.000000
v 0.620000 0.530000 -0.000000
v 0.620000 0.490000 -0.000000
v 0.000000 0.460000 -0.020000
v 0.000000 0.530000 0.000000
v 0.000000 0.460000 0.000000
v 0.000000 0.530000 -0.020000
v 0.000000 0.530000 -0.020000
v 0.000000 0.460000 -0.020000
v 0.000000 0.530000 0.000000
v 0.000000 0.460000 0.000000
v -0.028506 0.490000 -0.020000
v -0.028506 0.460000 0.000000
v -0.028506 0.490000 0.000000
v -0.028506 0.460000 -0.020000
v -0.028506 0.460000 -0.020000
v -0.028506 0.490000 -0.020000
v -0.028506 0.460000 0.000000
v -0.028506 0.490000 0.000000
vn -0.0000 -0.0000 -1.0000
vn -0.0000 -0.0000 1.0000
vn -0.0000 -0.0000 -0.0000
vn -0.0000 1.0000 -0.0000
vn -0.0000 -1.0000 -0.0000
vn -1.0000 -0.0000 -0.0000
vn 1.0000 -0.0000 -0.0000
s 1
usemtl FP_DOORFRAME
f 736//119 737//119 738//119
s 0
f 737//119 736//119 739//119
f 739//119 736//119 740//119
f 740//119 736//119 741//119
f 740//119 741//119 742//119
f 743//120 744//120 745//120
f 744//120 746//120 745//120
f 745//120 746//120 747//120
f 747//120 746//120 748//120
s 1
f 749//121 748//121 746//121
s 0
f 750//122 751//122 752//122
f 751//122 750//122 753//122
f 754//123 755//123 756//123
f 757//123 756//123 755//123
f 758//122 759//122 760//122
f 759//122 758//122 761//122
f 762//123 763//123 764//123
f 765//123 764//123 763//123
f 766//124 767//124 768//124
f 767//124 766//124 769//124
f 770//125 771//125 772//125
f 773//125 772//125 771//125
f 774//125 775//125 776//125
f 775//125 774//125 777//125
f 778//124 779//124 780//124
f 781//124 780//124 779//124
f 782//123 783//123 784//123
f 783//123 782//123 785//123
f 786//122 787//122 788//122
f 789//122 788//122 787//122
s 1
f 790//119 791//119 792//119
s 0
f 791//119 790//119 793//119
f 793//119 790//119 794//119
f 794//119 790//119 795//119
f 794//119 795//119 796//119
f 797//120 798//120 799//120
f 798//120 800//120 799//120
f 799//120 800//120 801//120
f 801//120 800//120 802//120
s 1
f 803//121 802//121 800//121
s 0
f 804//120 805//120 806//120
f 807//120 806//120 805//120
f 806//120 807//120 808//120
f 806//120 808//120 809//120
f 810//119 811//119 812//119
f 811//119 813//119 812//119
f 814//119 812//119 813//119
f 812//119 814//119 815//119
f 816//125 817//125 818//125
f 817//125 816//125 819//125
f 820//124 821//124 822//124
f 823//124 822//124 821//124
f 824//124 825//124 826//124
f 825//124 824//124 827//124
f 828//125 829//125 830//125
f 831//125 830//125 829//125
o ID266
v -0.620000 0.530000 0.040000
v 0.620000 0.530000 -0.000000
v 0.620000 0.530000 0.040000
v 0.000000 0.530000 0.020000
v -0.591494 0.530000 0.020000
v -0.620000 0.530000 0.020000
v 0.000000 0.530000 0.000000
v 0.000000 0.530000 0.020000
v 0.620000 0.530000 -0.000000
v 0.000000 0.530000 0.000000
v -0.620000 0.530000 0.020000
v -0.620000 0.530000 0.040000
v -0.591494 0.530000 0.020000
v 0.620000 0.530000 0.040000
v -0.591494 0.530000 0.020000
v 0.000000 0.530000 0.000000
v 0.000000 0.530000 0.020000
v 0.000000 0.530000 -0.020000
v -0.591494 0.530000 -0.020000
v -0.591494 0.530000 -0.020000
v -0.591494 0.530000 0.020000
v 0.000000 0.530000 -0.020000
v 0.000000 0.530000 0.000000
v 0.000000 0.530000 0.020000
v 0.000000 0.530000 0.000000
v 0.620000 0.530000 -0.040000
v 0.620000 0.530000 -0.000000
v 0.000000 0.530000 -0.020000
v -0.620000 0.530000 -0.040000
v -0.591494 0.530000 -0.020000
v -0.620000 0.530000 -0.020000
v -0.620000 0.530000 -0.020000
v -0.591494 0.530000 -0.020000
v -0.620000 0.530000 -0.040000
v 0.000000 0.530000 -0.020000
v 0.620000 0.530000 -0.040000
v 0.000000 0.530000 0.000000
v 0.620000 0.530000 -0.000000
vn -0.0000 -1.0000 -0.0000
vn -0.0000 1.0000 -0.0000
s 0
usemtl FP_DOORFRAME
f 832//126 833//126 834//126
f 833//126 832//126 835//126
f 835//126 832//126 836//126
f 836//126 832//126 837//126
f 838//126 833//126 835//126
f 839//127 840//127 841//127
f 842//127 843//127 844//127
f 844//127 843//127 839//127
f 839//127 843//127 840//127
f 845//127 840//127 843//127
f 846//126 847//126 848//126
f 847//126 846//126 849//126
f 849//126 846//126 850//126
f 851//127 852//127 853//127
f 853//127 852//127 854//127
f 855//127 854//127 852//127
f 856//126 857//126 858//126
f 857//126 856//126 859//126
f 857//126 859//126 860//126
f 860//126 859//126 861//126
f 860//126 861//126 862//126
f 863//127 864//127 865//127
f 864//127 866//127 865//127
f 865//127 866//127 867//127
f 866//127 868//127 867//127
f 869//127 867//127 868//127
o ID272
v -0.620000 0.530000 0.020000
v -0.620000 0.490000 0.000000
v -0.620000 0.490000 0.020000
v -0.620000 0.530000 -0.020000
v -0.620000 0.490000 -0.020000
vn -1.0000 -0.0000 -0.0000
s 0
usemtl FP_DOORFRAME
f 870//128 871//128 872//128
f 871//128 870//128 873//128
f 871//128 873//128 874//128
o ID278
v -0.620000 0.530000 0.040000
v 0.620000 0.590000 0.040000
v -0.620000 0.590000 0.040000
v 0.620000 0.530000 0.040000
v 0.620000 0.530000 0.040000
v -0.620000 0.530000 0.040000
v 0.620000 0.590000 0.040000
v -0.620000 0.590000 0.040000
v -0.620000 0.590000 -0.040000
v 0.620000 0.590000 0.040000
v 0.620000 0.590000 -0.040000
v -0.620000 0.590000 0.040000
v -0.620000 0.590000 0.040000
v -0.620000 0.590000 -0.040000
v 0.620000 0.590000 0.040000
v 0.620000 0.590000 -0.040000
v 0.620000 0.590000 -0.040000
v -0.620000 0.530000 -0.040000
v -0.620000 0.590000 -0.040000
v 0.620000 0.530000 -0.040000
v 0.620000 0.530000 -0.040000
v 0.620000 0.590000 -0.040000
v -0.620000 0.530000 -0.040000
v -0.620000 0.590000 -0.040000
vn -0.0000 -0.0000 1.0000
vn -0.0000 -0.0000 -1.0000
vn -0.0000 1.0000 -0.0000
vn -0.0000 -1.0000 -0.0000
s 0
usemtl FP_DOORFRAME
f 875//129 876//129 877//129
f 876//129 875//129 878//129
f 879//130 880//130 881//130
f 882//130 881//130 880//130
f 883//131 884//131 885//131
f 884//131 883//131 886//131
f 887//132 888//132 889//132
f 890//132 889//132 888//132
f 891//130 892//130 893//130
f 892//130 891//130 894//130
f 895//129 896//129 897//129
f 898//129 897//129 896//129
o ID284
v 0.620000 0.590000 -0.040000
v 0.620000 0.530000 0.040000
v 0.620000 0.590000 0.040000
v 0.620000 0.530000 -0.000000
v 0.620000 0.530000 -0.040000
vn -1.0000 -0.0000 -0.0000
s 0
usemtl FP_DOORFRAME
f 899//133 900//133 901//133
f 900//133 899//133 902//133
f 902//133 899//133 903//133
o ID290
v 0.620000 0.470000 -0.000000
v 0.620000 0.490000 -0.000000
v 0.042759 0.470000 -0.000000
v 0.028506 0.490000 -0.000000
v 0.028506 0.460000 -0.000000
v 0.042759 0.460000 -0.000000
v 0.042759 0.460000 -0.000000
v 0.028506 0.460000 -0.000000
v 0.042759 0.470000 -0.000000
v 0.028506 0.490000 -0.000000
v 0.620000 0.490000 -0.000000
v 0.620000 0.470000 -0.000000
vn -0.0000 -0.0000 1.0000
vn -0.0000 -0.0000 -1.0000
s 0
usemtl FP_GLASSBORDER
f 904//134 905//134 906//134
f 907//134 906//134 905//134
f 906//134 907//134 908//134
f 906//134 908//134 909//134
f 910//135 911//135 912//135
f 911//135 913//135 912//135
f 914//135 912//135 913//135
f 912//135 914//135 915//135
o ID296
v -0.620000 0.460000 0.000000
v -0.042759 0.470000 0.000000
v -0.620000 0.470000 0.000000
v -0.042759 0.460000 0.000000
v -0.042759 0.460000 0.000000
v -0.620000 0.460000 0.000000
v -0.042759 0.470000 0.000000
v -0.620000 0.470000 0.000000
vn -0.0000 -0.0000 1.0000
vn -0.0000 -0.0000 -1.0000
s 0
usemtl FP_GLASS
f 916//136 917//136 918//136
f 917//136 916//136 919//136
f 920//137 921//137 922//137
f 923//137 922//137 921//137
o ID304
v -0.620000 -0.530000 0.020000
v 0.000000 -0.530000 0.000000
v 0.000000 -0.530000 0.020000
v 0.000000 -0.530000 -0.020000
v -0.620000 -0.530000 -0.020000
v -0.620000 -0.530000 -0.020000
v -0.620000 -0.530000 0.020000
v 0.000000 -0.530000 -0.020000
v 0.000000 -0.530000 0.000000
v 0.000000 -0.530000 0.020000
v 0.000000 -0.530000 0.020000
v -0.028506 -0.460000 0.020000
v 0.000000 -0.460000 0.020000
v -0.028506 -0.490000 0.020000
v -0.620000 -0.530000 0.020000
v -0.620000 -0.490000 0.020000
v -0.028506 -0.490000 0.020000
v -0.620000 -0.490000 0.020000
v -0.620000 -0.530000 0.020000
v 0.000000 -0.530000 0.020000
v -0.028506 -0.460000 0.020000
v 0.000000 -0.460000 0.020000
v 0.000000 -0.530000 -0.020000
v -0.028506 -0.460000 -0.020000
v 0.000000 -0.460000 -0.020000
v -0.028506 -0.490000 -0.020000
v -0.620000 -0.530000 -0.020000
v -0.620000 -0.490000 -0.020000
v -0.028506 -0.490000 -0.020000
v -0.620000 -0.490000 -0.020000
v -0.620000 -0.530000 -0.020000
v 0.000000 -0.530000 -0.020000
v -0.028506 -0.460000 -0.020000
v 0.000000 -0.460000 -0.020000
v 0.000000 -0.530000 -0.020000
v 0.000000 -0.460000 0.000000
v 0.000000 -0.530000 0.000000
v 0.000000 -0.460000 -0.020000
v 0.000000 -0.460000 -0.020000
v 0.000000 -0.530000 -0.020000
v 0.000000 -0.460000 0.000000
v 0.000000 -0.530000 0.000000
v 0.000000 -0.460000 0.020000
v 0.000000 -0.530000 0.000000
v 0.000000 -0.530000 0.020000
v 0.000000 -0.460000 0.000000
v 0.000000 -0.460000 0.000000
v 0.000000 -0.460000 0.020000
v 0.000000 -0.530000 0.000000
v 0.000000 -0.530000 0.020000
v -0.620000 -0.490000 0.020000
v -0.028506 -0.490000 0.000000
v -0.028506 -0.490000 0.020000
v -0.620000 -0.490000 0.000000
v -0.620000 -0.490000 0.000000
v -0.620000 -0.490000 0.020000
v -0.028506 -0.490000 0.000000
v -0.028506 -0.490000 0.020000
v -0.028506 -0.490000 0.020000
v -0.028506 -0.460000 0.000000
v -0.028506 -0.460000 0.020000
v -0.028506 -0.490000 0.000000
v -0.028506 -0.490000 0.000000
v -0.028506 -0.490000 0.020000
v -0.028506 -0.460000 0.000000
v -0.028506 -0.460000 0.020000
v -0.620000 -0.490000 -0.020000
v -0.028506 -0.490000 0.000000
v -0.028506 -0.490000 -0.020000
v -0.620000 -0.490000 0.000000
v -0.620000 -0.490000 0.000000
v -0.620000 -0.490000 -0.020000
v -0.028506 -0.490000 0.000000
v -0.028506 -0.490000 -0.020000
v -0.028506 -0.460000 0.000000
v -0.028506 -0.490000 -0.020000
v -0.028506 -0.490000 0.000000
v -0.028506 -0.460000 -0.020000
v -0.028506 -0.460000 -0.020000
v -0.028506 -0.460000 0.000000
v -0.028506 -0.490000 -0.020000
v -0.028506 -0.490000 0.000000
v 0.000000 -0.530000 0.000000
v 0.028506 -0.460000 -0.000000
v 0.000000 -0.460000 0.000000
v 0.028506 -0.490000 -0.000000
v 0.620000 -0.490000 -0.000000
v 0.620000 -0.530000 -0.000000
v 0.620000 -0.530000 -0.000000
v 0.000000 -0.530000 0.000000
v 0.620000 -0.490000 -0.000000
v 0.028506 -0.490000 -0.000000
v 0.028506 -0.460000 -0.000000
v 0.000000 -0.460000 0.000000
vn -0.0000 -1.0000 -0.0000
vn -0.0000 1.0000 -0.0000
vn -0.0000 -0.0000 -1.0000
vn -0.0000 -0.0000 1.0000
vn 1.0000 -0.0000 -0.0000
vn -1.0000 -0.0000 -0.0000
s 0
usemtl FP_DOORFRAME
f 924//138 925//138 926//138
f 925//138 924//138 927//138
f 927//138 924//138 928//138
f 929//139 930//139 931//139
f 931//139 930//139 932//139
f 933//139 932//139 930//139
f 934//140 935//140 936//140
f 935//140 934//140 937//140
f 937//140 934//140 938//140
f 938//140 939//140 937//140
f 940//141 941//141 942//141
f 942//141 943//141 940//141
f 940//141 943//141 944//141
f 945//141 944//141 943//141
f 946//140 947//140 948//140
f 947//140 946//140 949//140
f 949//140 946//140 950//140
f 950//140 951//140 949//140
f 952//141 953//141 954//141
f 954//141 955//141 952//141
f 952//141 955//141 956//141
f 957//141 956//141 955//141
f 958//142 959//142 960//142
f 959//142 958//142 961//142
f 962//143 963//143 964//143
f 965//143 964//143 963//143
f 966//143 967//143 968//143
f 967//143 966//143 969//143
f 970//142 971//142 972//142
f 973//142 972//142 971//142
f 974//138 975//138 976//138
f 975//138 974//138 977//138
f 978//139 979//139 980//139
f 981//139 980//139 979//139
f 982//142 983//142 984//142
f 983//142 982//142 985//142
f 986//143 987//143 988//143
f 989//143 988//143 987//143
f 990//139 991//139 992//139
f 991//139 990//139 993//139
f 994//138 995//138 996//138
f 997//138 996//138 995//138
f 998//143 999//143 1000//143
f 999//143 998//143 1001//143
f 1002//142 1003//142 1004//142
f 1005//142 1004//142 1003//142
f 1006//141 1007//141 1008//141
f 1007//141 1006//141 1009//141
f 1009//141 1006//141 1010//141
f 1010//141 1006//141 1011//141
f 1012//140 1013//140 1014//140
f 1014//140 1013//140 1015//140
f 1015//140 1013//140 1016//140
f 1017//140 1016//140 1013//140
o ID310
v -0.620000 -0.590000 0.040000
v 0.620000 -0.590000 -0.040000
v 0.620000 -0.590000 0.040000
v -0.620000 -0.590000 -0.040000
v -0.620000 -0.590000 -0.040000
v -0.620000 -0.590000 0.040000
v 0.620000 -0.590000 -0.040000
v 0.620000 -0.590000 0.040000
v -0.620000 -0.590000 0.040000
v 0.620000 -0.530000 0.040000
v -0.620000 -0.530000 0.040000
v 0.620000 -0.590000 0.040000
v 0.620000 -0.590000 0.040000
v -0.620000 -0.590000 0.040000
v 0.620000 -0.530000 0.040000
v -0.620000 -0.530000 0.040000
v 0.620000 -0.530000 -0.040000
v -0.620000 -0.590000 -0.040000
v -0.620000 -0.530000 -0.040000
v 0.620000 -0.590000 -0.040000
v 0.620000 -0.590000 -0.040000
v 0.620000 -0.530000 -0.040000
v -0.620000 -0.590000 -0.040000
v -0.620000 -0.530000 -0.040000
vn -0.0000 -1.0000 -0.0000
vn -0.0000 1.0000 -0.0000
vn -0.0000 -0.0000 1.0000
vn -0.0000 -0.0000 -1.0000
s 0
usemtl FP_DOORFRAME
f 1018//144 1019//144 1020//144
f 1019//144 1018//144 1021//144
f 1022//145 1023//145 1024//145
f 1025//145 1024//145 1023//145
f 1026//146 1027//146 1028//146
f 1027//146 1026//146 1029//146
f 1030//147 1031//147 1032//147
f 1033//147 1032//147 1031//147
f 1034//147 1035//147 1036//147
f 1035//147 1034//147 1037//147
f 1038//146 1039//146 1040//146
f 1041//146 1040//146 1039//146
o ID316
v 0.000000 -0.530000 0.000000
v 0.620000 -0.530000 0.040000
v 0.620000 -0.530000 -0.000000
v 0.000000 -0.530000 0.020000
v -0.620000 -0.530000 0.040000
v -0.620000 -0.530000 0.020000
v -0.620000 -0.530000 0.020000
v 0.000000 -0.530000 0.020000
v -0.620000 -0.530000 0.040000
v 0.620000 -0.530000 0.040000
v 0.000000 -0.530000 0.000000
v 0.620000 -0.530000 -0.000000
v 0.620000 -0.530000 -0.040000
v 0.000000 -0.530000 -0.020000
v 0.620000 -0.530000 -0.000000
v -0.620000 -0.530000 -0.040000
v 0.000000 -0.530000 0.000000
v -0.620000 -0.530000 -0.020000
v -0.620000 -0.530000 -0.020000
v -0.620000 -0.530000 -0.040000
v 0.000000 -0.530000 -0.020000
v 0.000000 -0.530000 0.000000
v 0.620000 -0.530000 -0.000000
v 0.620000 -0.530000 -0.040000
vn -0.0000 1.0000 -0.0000
vn -0.0000 -1.0000 -0.0000
s 0
usemtl FP_DOORFRAME
f 1042//148 1043//148 1044//148
f 1043//148 1042//148 1045//148
f 1043//148 1045//148 1046//148
f 1046//148 1045//148 1047//148
f 1048//149 1049//149 1050//149
f 1050//149 1049//149 1051//149
f 1049//149 1052//149 1051//149
f 1053//149 1051//149 1052//149
f 1054//148 1055//148 1056//148
f 1055//148 1054//148 1057//148
f 1056//148 1055//148 1058//148
f 1055//148 1057//148 1059//148
f 1060//149 1061//149 1062//149
f 1063//149 1062//149 1064//149
f 1061//149 1065//149 1062//149
f 1064//149 1062//149 1065//149
o ID322
v -0.620000 -0.490000 0.000000
v -0.042759 -0.470000 0.000000
v -0.620000 -0.470000 0.000000
v -0.028506 -0.460000 0.000000
v -0.042759 -0.460000 0.000000
v -0.028506 -0.490000 0.000000
v -0.620000 -0.490000 0.000000
v -0.042759 -0.470000 0.000000
v -0.028506 -0.490000 0.000000
v -0.028506 -0.460000 0.000000
v -0.042759 -0.460000 0.000000
v -0.620000 -0.470000 0.000000
vn -0.0000 -0.0000 1.0000
vn -0.0000 -0.0000 -1.0000
s 0
usemtl FP_GLASSBORDER
f 1066//150 1067//150 1068//150
f 1067//150 1069//150 1070//150
f 1069//150 1067//150 1071//150
f 1071//150 1067//150 1066//150
f 1072//151 1073//151 1074//151
f 1074//151 1073//151 1075//151
f 1076//151 1075//151 1073//151
f 1077//151 1073//151 1072//151
o ID328
v 0.620000 -0.530000 -0.000000
v 0.620000 -0.590000 0.040000
v 0.620000 -0.530000 0.040000
v 0.620000 -0.590000 -0.040000
v 0.620000 -0.530000 -0.040000
vn -1.0000 -0.0000 -0.0000
s 0
usemtl FP_DOORFRAME
f 1078//152 1079//152 1080//152
f 1079//152 1078//152 1081//152
f 1081//152 1078//152 1082//152
o ID334
v 0.042759 -0.470000 -0.000000
v 0.620000 -0.460000 -0.000000
v 0.042759 -0.460000 -0.000000
v 0.620000 -0.470000 -0.000000
v 0.620000 -0.470000 -0.000000
v 0.042759 -0.470000 -0.000000
v 0.620000 -0.460000 -0.000000
v 0.042759 -0.460000 -0.000000
vn -0.0000 -0.0000 1.0000
vn -0.0000 -0.0000 -1.0000
s 0
usemtl FP_GLASS
f 1083//153 1084//153 1085//153
f 1084//153 1083//153 1086//153
f 1087//154 1088//154 1089//154
f 1090//154 1089//154 1088//154
o ID340
v -0.620000 -0.470000 0.000000
v -0.042759 -0.460000 0.000000
v -0.620000 -0.460000 0.000000
v -0.042759 -0.470000 0.000000
v -0.042759 -0.470000 0.000000
v -0.620000 -0.470000 0.000000
v -0.042759 -0.460000 0.000000
v -0.620000 -0.460000 0.000000
vn -0.0000 -0.0000 1.0000
vn -0.0000 -0.0000 -1.0000
s 0
usemtl FP_GLASS
f 1091//155 1092//155 1093//155
f 1092//155 1091//155 1094//155
f 1095//156 1096//156 1097//156
f 1098//156 1097//156 1096//156
o ID346
v 0.028506 -0.490000 -0.000000
v 0.042759 -0.460000 -0.000000
v 0.028506 -0.460000 -0.000000
v 0.042759 -0.470000 -0.000000
v 0.620000 -0.470000 -0.000000
v 0.620000 -0.490000 -0.000000
v 0.620000 -0.490000 -0.000000
v 0.028506 -0.490000 -0.000000
v 0.620000 -0.470000 -0.000000
v 0.042759 -0.470000 -0.000000
v 0.042759 -0.460000 -0.000000
v 0.028506 -0.460000 -0.000000
vn -0.0000 -0.0000 1.0000
vn -0.0000 -0.0000 -1.0000
s 0
usemtl FP_GLASSBORDER
f 1099//157 1100//157 1101//157
f 1100//157 1099//157 1102//157
f 1102//157 1099//157 1103//157
f 1103//157 1099//157 1104//157
f 1105//158 1106//158 1107//158
f 1107//158 1106//158 1108//158
f 1108//158 1106//158 1109//158
f 1110//158 1109//158 1106//158
o ID352
v -0.620000 -0.490000 0.020000
v -0.620000 -0.530000 -0.020000
v -0.620000 -0.530000 0.020000
v -0.620000 -0.490000 0.000000
v -0.620000 -0.490000 -0.020000
vn -1.0000 -0.0000 -0.0000
s 0
usemtl FP_DOORFRAME
f 1111//159 1112//159 1113//159
f 1112//159 1111//159 1114//159
f 1112//159 1114//159 1115//159
o ID360
v -0.028506 -0.460000 0.000000
v -0.028506 0.460000 0.020000
v -0.028506 -0.460000 0.020000
v -0.028506 0.460000 0.000000
v -0.028506 0.460000 0.000000
v -0.028506 -0.460000 0.000000
v -0.028506 0.460000 0.020000
v -0.028506 -0.460000 0.020000
v -0.000000 -0.460000 0.020000
v -0.028506 0.460000 0.020000
v 0.000000 0.460000 0.020000
v -0.028506 -0.460000 0.020000
v -0.028506 -0.460000 0.020000
v -0.000000 -0.460000 0.020000
v -0.028506 0.460000 0.020000
v 0.000000 0.460000 0.020000
v -0.028506 0.460000 0.000000
v -0.028506 -0.460000 -0.020000
v -0.028506 -0.460000 0.000000
v -0.028506 0.460000 -0.020000
v -0.028506 0.460000 -0.020000
v -0.028506 0.460000 0.000000
v -0.028506 -0.460000 -0.020000
v -0.028506 -0.460000 0.000000
v 0.000000 0.460000 0.020000
v -0.000000 -0.460000 -0.000000
v -0.000000 -0.460000 0.020000
v 0.000000 0.460000 -0.000000
v 0.000000 0.460000 -0.000000
v 0.000000 0.460000 0.020000
v -0.000000 -0.460000 -0.000000
v -0.000000 -0.460000 0.020000
v -0.000000 -0.460000 -0.020000
v -0.028506 0.460000 -0.020000
v 0.000000 0.460000 -0.020000
v -0.028506 -0.460000 -0.020000
v -0.028506 -0.460000 -0.020000
v -0.000000 -0.460000 -0.020000
v -0.028506 0.460000 -0.020000
v 0.000000 0.460000 -0.020000
v -0.000000 -0.460000 -0.020000
v 0.000000 0.460000 -0.000000
v -0.000000 -0.460000 -0.000000
v 0.000000 0.460000 -0.020000
v 0.000000 0.460000 -0.020000
v -0.000000 -0.460000 -0.020000
v 0.000000 0.460000 -0.000000
v -0.000000 -0.460000 -0.000000
v -0.000000 -0.460000 -0.000000
v 0.028506 0.460000 -0.000000
v 0.000000 0.460000 -0.000000
v 0.028506 -0.460000 -0.000000
v 0.028506 -0.460000 -0.000000
v -0.000000 -0.460000 -0.000000
v 0.028506 0.460000 -0.000000
v 0.000000 0.460000 -0.000000
vn 1.0000 -0.0000 -0.0000
vn -1.0000 -0.0000 -0.0000
vn -0.0000 -0.0000 -1.0000
vn -0.0000 -0.0000 1.0000
s 0
usemtl FP_DOORFRAME
f 1116//160 1117//160 1118//160
f 1117//160 1116//160 1119//160
f 1120//161 1121//161 1122//161
f 1123//161 1122//161 1121//161
f 1124//162 1125//162 1126//162
f 1125//162 1124//162 1127//162
f 1128//163 1129//163 1130//163
f 1131//163 1130//163 1129//163
f 1132//161 1133//161 1134//161
f 1133//161 1132//161 1135//161
f 1136//160 1137//160 1138//160
f 1139//160 1138//160 1137//160
f 1140//161 1141//161 1142//161
f 1141//161 1140//161 1143//161
f 1144//160 1145//160 1146//160
f 1147//160 1146//160 1145//160
f 1148//162 1149//162 1150//162
f 1149//162 1148//162 1151//162
f 1152//163 1153//163 1154//163
f 1155//163 1154//163 1153//163
f 1156//160 1157//160 1158//160
f 1157//160 1156//160 1159//160
f 1160//161 1161//161 1162//161
f 1163//161 1162//161 1161//161
f 1164//163 1165//163 1166//163
f 1165//163 1164//163 1167//163
f 1168//162 1169//162 1170//162
f 1171//162 1170//162 1169//162
o ID366
v -0.028506 0.460000 -0.020000
v 0.000000 0.460000 -0.000000
v 0.000000 0.460000 -0.020000
v 0.000000 0.460000 0.020000
v -0.028506 0.460000 0.020000
v -0.028506 0.460000 0.000000
vn -0.0000 1.0000 -0.0000
vn -0.0000 1.0000 0.0001
vn -0.0000 1.0000 -0.0001
s 0
usemtl FP_DOORFRAME
f 1172//164 1173//164 1174//164
f 1173//164 1172//164 1175//164
f 1175//164 1172//164 1176//164
s 1
f 1176//165 1172//166 1177//166
o ID372
v 0.028506 -0.460000 -0.000000
v 0.042759 0.460000 -0.000000
v 0.028506 0.460000 -0.000000
v 0.042759 -0.460000 -0.000000
v 0.042759 -0.460000 -0.000000
v 0.028506 -0.460000 -0.000000
v 0.042759 0.460000 -0.000000
v 0.028506 0.460000 -0.000000
vn -0.0000 -0.0000 1.0000
vn -0.0000 -0.0000 -1.0000
s 0
usemtl FP_GLASSBORDER
f 1178//167 1179//167 1180//167
f 1179//167 1178//167 1181//167
f 1182//168 1183//168 1184//168
f 1185//168 1184//168 1183//168
o ID384
v -0.042759 -0.460000 0.000000
v -0.028506 0.460000 0.000000
v -0.042759 0.460000 0.000000
v -0.028506 -0.460000 0.000000
v -0.028506 -0.460000 0.000000
v -0.042759 -0.460000 0.000000
v -0.028506 0.460000 0.000000
v -0.042759 0.460000 0.000000
vn -0.0000 -0.0000 1.0000
vn -0.0000 -0.0000 -1.0000
s 0
usemtl FP_GLASSBORDER
f 1186//169 1187//169 1188//169
f 1187//169 1186//169 1189//169
f 1190//170 1191//170 1192//170
f 1193//170 1192//170 1191//170
o ID390
v -0.028506 -0.460000 -0.020000
v -0.000000 -0.460000 -0.000000
v -0.000000 -0.460000 -0.020000
v -0.000000 -0.460000 0.020000
v -0.028506 -0.460000 0.020000
v -0.028506 -0.460000 0.000000
vn -0.0000 1.0000 -0.0000
vn -0.0000 1.0000 0.0001
vn -0.0000 1.0000 -0.0001
s 0
usemtl FP_DOORFRAME
f 1194//171 1195//171 1196//171
f 1195//171 1194//171 1197//171
f 1197//171 1194//171 1198//171
s 1
f 1198//172 1194//173 1199//173
